<svg xmlns="http://www.w3.org/2000/svg" width="14.026" height="29.558" viewBox="0 0 14.026 29.558"><path d="M1552.049,7567.021a7.6,7.6,0,0,0-3.728-2.244l-1.231-.38v-8.362a4.386,4.386,0,0,1,2.188,1,4.725,4.725,0,0,1,1.418,3.349h2.211a7.123,7.123,0,0,0-.99-3.6,5.7,5.7,0,0,0-2.409-2.195,7.251,7.251,0,0,0-2.418-.667v-2.988h-1.873v3.014a5.626,5.626,0,0,0-.593.1,5.971,5.971,0,0,0-1.287.462l-1.815,1.848a7.222,7.222,0,0,0-1.534,2.128,5.4,5.4,0,0,0-.479,2.228,4.7,4.7,0,0,0,1.188,3.267,8.493,8.493,0,0,0,3.894,2.145l.626.185v9.187a4.328,4.328,0,0,1-2.44-1.221,5.5,5.5,0,0,1-1.387-3.762h-2.178a8.123,8.123,0,0,0,.957,4.026,5.739,5.739,0,0,0,2.491,2.343,7.677,7.677,0,0,0,2.557.7v2.906h1.873v-2.9c.218-.021.436-.048.652-.086a6.4,6.4,0,0,0,1.238-.33l1.947-1.98a9.114,9.114,0,0,0,1.766-2.327,5.635,5.635,0,0,0,.545-2.524A5.115,5.115,0,0,0,1552.049,7567.021Zm-9.52-4.719a3.874,3.874,0,0,1-.347-4.4,3.954,3.954,0,0,1,1.5-1.419,4.268,4.268,0,0,1,1.533-.49v7.831A6.368,6.368,0,0,1,1542.529,7562.3Zm8.051,10.956a4.273,4.273,0,0,1-1.6,1.666,4.532,4.532,0,0,1-1.89.636v-8.69l.174.052a5.646,5.646,0,0,1,3,1.782,4.335,4.335,0,0,1,.825,2.64A4.162,4.162,0,0,1,1550.58,7573.258Z" transform="translate(-1539.212 -7550.941)" fill="#2a2a2a" opacity="0.2"/></svg>