<svg xmlns="http://www.w3.org/2000/svg" xmlns:xlink="http://www.w3.org/1999/xlink" width="34.765" height="34.765" viewBox="0 0 34.765 34.765"><defs><style>.a,.d{fill:none;}.b{clip-path:url(#a);}.c{fill:#040505;fill-rule:evenodd;}.d{stroke:#2e7b9d;stroke-miterlimit:10;stroke-width:0.877px;}</style><clipPath id="a"><circle class="a" cx="15.493" cy="15.493" r="15.493" transform="translate(1812.893 37.171)"/></clipPath></defs><g transform="translate(-1811.003 -35.281)"><g class="b"><path class="c" d="M1828.71,35.251a17.089,17.089,0,1,1-17.28,17.088A17.185,17.185,0,0,1,1828.71,35.251Zm10.375,10.406c-.026-.241-.056-.481-.087-.715l-1.4.718c.231.461.452.94.676,1.424-.058.318-.12.645-.18.967.467.058.925.112,1.374.168-.113-.54-.242-1.07-.365-1.588-.191-.258-.37-.519-.557-.769C1838.722,45.793,1838.906,45.724,1839.085,45.657Zm-1.58,20.074c4.156-2.762,5.667-7.942,5.665-7.945.774-2.646,1.383-4.91,1.356-5.03s-.3-.231-.526.028a6.428,6.428,0,0,0-.919,1.287,2.589,2.589,0,0,1-.212.874c-.106.146-.492.171-.606-.274a14.892,14.892,0,0,0-.754-2.107,3.858,3.858,0,0,0-1.4-1.1,11.066,11.066,0,0,1-1.9-.623c-.139-.133-.578-.454-.647-.411a.692.692,0,0,0-.056.638c.108.263.513.89.671.8a1.167,1.167,0,0,1,.937.009,1.038,1.038,0,0,1-.367,1.372c-.6.407-2.555.926-2.885.225a22.851,22.851,0,0,0-1.4-2.551,3.294,3.294,0,0,0,.39,1.594c.368.852,1.511,2.881,1.85,2.71s1.113-.31,1,.074a7.077,7.077,0,0,1-1.071,1.951,4.917,4.917,0,0,0-1.259,1.911,3.86,3.86,0,0,1-.34,1.708,10.7,10.7,0,0,0-1.454,1.4,7.311,7.311,0,0,1-2.008,1.657,2.31,2.31,0,0,1-1.626-.665,8.366,8.366,0,0,1-.9-2.407,5.639,5.639,0,0,0-.083-2.116c-.2-.567-1.3-2.119-2-2.081a7.757,7.757,0,0,1-3.175-.543,5.178,5.178,0,0,1-1.283-2.449,9.651,9.651,0,0,1,.9-3.031,7.7,7.7,0,0,1,2.677-1.877,8.227,8.227,0,0,1,2.711-.113,2.574,2.574,0,0,0,.71,1.034c.3.192,1.184.57,1.3.413a1.572,1.572,0,0,1,1.233-.358,8.949,8.949,0,0,0,1.826.309,1.525,1.525,0,0,0,.484-.544c.044-.165-.087-.643-.389-.7a3.644,3.644,0,0,1-1.3-.5,4.146,4.146,0,0,0-.509-.674.345.345,0,0,0-.373.246c-.059.207-.326.626-.466.455a2.97,2.97,0,0,1-.5-.86,1.247,1.247,0,0,0-.307-.744c-.187-.136-.75-.528-.859-.578s-.388-.072-.376.06a1.439,1.439,0,0,0,.45.745c.228.144.734.634.62.763s-.562.3-.731.093-.693-.858-.811-.983a1.109,1.109,0,0,0-.921-.224,5.474,5.474,0,0,0-1.35.985c-.2.284-.949,1.026-1.237.985s-1.044-.425-1.045-.773.293-1.212.652-1.2,1.232-.077,1.123-.248-.44-.72-.5-.854a.524.524,0,0,1,.274-.62,5.093,5.093,0,0,0,1.27-.6,3.148,3.148,0,0,1,.772-.62c.12-.009.409-.1.388-.184a.7.7,0,0,1,.055-.451c.079-.078.327-.176.384-.05a1.268,1.268,0,0,0,.811.489c.333.008,1.27-.113,1.351-.3s.391-.61.515-.577.414.028.363-.085-.04-.435.14-.47.6-.165.535-.211a1.034,1.034,0,0,0-.521-.119c-.159.026-.646.024-.715-.068s-.251-.321-.26-.322-.027-.007-.024-.013a.167.167,0,0,0-.04-.086c-.027-.034-.045-.142.015-.167a.941.941,0,0,0,.3-.215c.042-.071.109-.254.049-.258a.927.927,0,0,0-.376.079,2.932,2.932,0,0,0-.452.389c-.075.1-.194.442-.1.505s.292.383.207.558-.437.709-.585.751-.615,0-.7-.2-.439-.621-.61-.557a2.83,2.83,0,0,1-.77.195.573.573,0,0,1-.258-.428c.019-.168.186-.614.33-.68a3.28,3.28,0,0,0,.728-.471,2.363,2.363,0,0,1,.885-.52,14.16,14.16,0,0,1,2.1-.089c.639.036,3.192.138,4.206.1s1.8-.756.659-1.55l-1.161-.53c-.049-.021-.1-.045-.147-.066-.127-.056-.256-.111-.385-.164-.146-.06-.293-.117-.44-.173l-.155-.058a15.847,15.847,0,0,0-5.411-.946,12.172,12.172,0,0,0-5.591,1.032c-2.4,1.363-4.294,2.49-4.2,2.5a.55.55,0,0,1,.1.033.192.192,0,0,1,.071-.012c.034,0,.087.063.145.145a.439.439,0,0,1,.137.161c.02.052.059.144.1.247.009.018.018.037.024.052.028.062.063.153.1.249s.078.2.088.233a.108.108,0,0,1,0,.027c.023.067.041.123.05.152a.457.457,0,0,1-.1.229.608.608,0,0,1-.128.238c-.1.1-.321.357-.47.545a2.467,2.467,0,0,0-.207.369.508.508,0,0,1-.127.143.541.541,0,0,1-.135.136,1.8,1.8,0,0,0-.377.4,5.419,5.419,0,0,0-.288.763c-.066.263-.232.463-.369.444a1.372,1.372,0,0,1-.615-.951c-.073-.486-.5-1.27-.865-.806s-1.164,1.761-1.14,1.74c0,0,.009,0,.016.014a.325.325,0,0,1,.03-.051,4.893,4.893,0,0,1,.163.6c.04.145.081.305.118.482l.006.03c.1.42.2.862.272,1.144a1.5,1.5,0,0,1-.145.883c-.023.39-.087.7-.217.788-.364.246-1.357,1.03-1.547,1.216a4.83,4.83,0,0,0-.752,1.97V53.9a8.422,8.422,0,0,0,.773,2.664,1.86,1.86,0,0,1,.248.125c.013-.024.03-.036.05-.029a2.241,2.241,0,0,1,.433.333,2.85,2.85,0,0,1,.434.36c.063.065.152.163.256.277.132.125.248.237.329.315a3.381,3.381,0,0,1,.405.516,2.728,2.728,0,0,1,.362.5,3.631,3.631,0,0,0,.65.883,12.452,12.452,0,0,0,1.447.967,1.237,1.237,0,0,1,.687,1.336c-.142.463-.582,1.516-.774,1.523s1.173,1.289,3.455,2.845a13.472,13.472,0,0,0,7.107,1.846,15.83,15.83,0,0,0,7.539-1.9l.126-.072c.165-.091.329-.184.49-.28.129-.078.256-.16.383-.24C1837.364,65.822,1837.435,65.778,1837.505,65.731Zm-.9-19.377c-.924-.488-1.863-.973-2.8-1.434-.257.437-.513.9-.783,1.37.136.226.275.45.41.681.542-.072,1.071-.148,1.594-.216.387.113.784.226,1.169.348C1836.337,46.846,1836.477,46.6,1836.61,46.354Z"/></g><circle class="d" cx="16.944" cy="16.944" r="16.944" transform="translate(1811.442 35.719)"/></g></svg>