<svg xmlns="http://www.w3.org/2000/svg" width="28.224" height="27.91" viewBox="0 0 28.224 27.91"><defs><style>.a{fill:#040505;fill-rule:evenodd;}</style></defs><path class="a" d="M1821.889-65.071A14.033,14.033,0,0,1,1836-51.116a14.034,14.034,0,0,1-14.112,13.955,14.035,14.035,0,0,1-14.112-13.955A14.034,14.034,0,0,1,1821.889-65.071Zm8.474,8.5c-.022-.2-.047-.393-.072-.584l-1.146.586c.189.377.369.768.553,1.163-.048.26-.1.527-.148.79.382.047.756.091,1.123.137-.093-.441-.2-.874-.3-1.3-.155-.211-.3-.424-.454-.628C1830.066-56.462,1830.216-56.519,1830.363-56.573Zm-1.291,16.394a13.014,13.014,0,0,0,4.626-6.489c.632-2.161,1.13-4.009,1.108-4.108s-.243-.189-.43.023a5.281,5.281,0,0,0-.751,1.051,2.1,2.1,0,0,1-.172.714c-.087.119-.4.139-.5-.224a12.14,12.14,0,0,0-.615-1.72,3.144,3.144,0,0,0-1.144-.9,9.054,9.054,0,0,1-1.549-.509c-.114-.109-.473-.37-.529-.336a.569.569,0,0,0-.046.521c.088.216.419.728.548.657a.952.952,0,0,1,.765.008.847.847,0,0,1-.3,1.12c-.488.332-2.087.756-2.356.183a18.8,18.8,0,0,0-1.14-2.083,2.708,2.708,0,0,0,.319,1.3c.3.7,1.234,2.353,1.511,2.214s.909-.254.816.059a5.79,5.79,0,0,1-.874,1.6,3.985,3.985,0,0,0-1.028,1.559,3.164,3.164,0,0,1-.278,1.4,8.662,8.662,0,0,0-1.187,1.143,5.972,5.972,0,0,1-1.64,1.353,1.89,1.89,0,0,1-1.329-.542,6.854,6.854,0,0,1-.73-1.967,4.613,4.613,0,0,0-.068-1.728c-.163-.463-1.065-1.731-1.63-1.7a6.332,6.332,0,0,1-2.593-.444,4.237,4.237,0,0,1-1.048-2,7.908,7.908,0,0,1,.738-2.475,6.3,6.3,0,0,1,2.187-1.533,6.736,6.736,0,0,1,2.214-.092,2.109,2.109,0,0,0,.579.844c.244.157.967.466,1.058.338a1.284,1.284,0,0,1,1.007-.293,7.269,7.269,0,0,0,1.492.253,1.249,1.249,0,0,0,.4-.445c.035-.134-.071-.525-.318-.569a2.956,2.956,0,0,1-1.06-.413,3.423,3.423,0,0,0-.415-.55.284.284,0,0,0-.306.2c-.047.169-.266.511-.38.372a2.45,2.45,0,0,1-.408-.7,1.016,1.016,0,0,0-.25-.607c-.153-.111-.612-.432-.7-.473s-.316-.058-.307.05a1.172,1.172,0,0,0,.368.608c.186.118.6.518.506.623s-.459.248-.6.076-.565-.7-.662-.8a.909.909,0,0,0-.752-.183,4.487,4.487,0,0,0-1.1.805c-.16.232-.775.838-1.01.8s-.852-.347-.854-.631.24-.99.533-.977,1.006-.064.917-.2-.359-.588-.411-.7a.427.427,0,0,1,.223-.506,4.164,4.164,0,0,0,1.037-.488,2.579,2.579,0,0,1,.631-.507c.1-.007.334-.078.317-.15a.571.571,0,0,1,.045-.368c.064-.064.267-.144.313-.041a1.036,1.036,0,0,0,.663.4c.272.007,1.037-.092,1.1-.241s.319-.5.421-.471.337.022.3-.07-.033-.355.114-.384.49-.135.438-.172a.846.846,0,0,0-.426-.1c-.131.022-.528.02-.584-.055s-.205-.262-.213-.263-.022-.006-.019-.01a.143.143,0,0,0-.033-.071c-.022-.027-.036-.116.012-.136a.75.75,0,0,0,.243-.176c.034-.058.089-.207.04-.21a.772.772,0,0,0-.307.064,2.447,2.447,0,0,0-.37.318c-.061.081-.158.361-.078.412s.238.313.169.456-.357.579-.478.613-.5,0-.57-.161-.359-.507-.5-.455a2.317,2.317,0,0,1-.629.159.466.466,0,0,1-.211-.35c.015-.137.152-.5.27-.555a2.677,2.677,0,0,0,.594-.384,1.932,1.932,0,0,1,.723-.425,11.584,11.584,0,0,1,1.711-.073c.522.03,2.606.113,3.435.085s1.472-.617.538-1.266l-.948-.433-.12-.053q-.156-.069-.315-.135c-.119-.048-.239-.095-.359-.14l-.127-.048a12.932,12.932,0,0,0-4.418-.772,9.952,9.952,0,0,0-4.567.842c-1.962,1.113-3.506,2.033-3.431,2.045a.432.432,0,0,1,.079.027.176.176,0,0,1,.058-.01c.028,0,.071.052.118.118a.354.354,0,0,1,.112.132l.082.2c.007.015.015.03.02.042.023.051.051.125.079.2s.064.164.072.191a.146.146,0,0,1,0,.022c.019.055.034.1.041.124a.377.377,0,0,1-.084.187.5.5,0,0,1-.1.195c-.083.084-.262.291-.384.445a2.022,2.022,0,0,0-.169.3.408.408,0,0,1-.1.117.445.445,0,0,1-.111.111,1.475,1.475,0,0,0-.308.324,4.459,4.459,0,0,0-.235.623c-.054.215-.189.378-.3.363a1.129,1.129,0,0,1-.5-.777c-.059-.4-.41-1.037-.706-.658s-.95,1.438-.931,1.421c0,0,.007,0,.013.011a.3.3,0,0,1,.025-.042,4.282,4.282,0,0,1,.133.493c.032.117.066.249.1.393l.005.025c.082.342.167.7.222.934a1.223,1.223,0,0,1-.118.721c-.019.318-.071.572-.178.643-.3.2-1.108.841-1.263.993a3.966,3.966,0,0,0-.614,1.609v1.653a6.866,6.866,0,0,0,.632,2.176,1.577,1.577,0,0,1,.2.1c.011-.019.024-.028.041-.023a1.893,1.893,0,0,1,.353.272,2.3,2.3,0,0,1,.354.294c.052.054.125.133.21.226l.269.258a2.8,2.8,0,0,1,.33.421,2.263,2.263,0,0,1,.3.409,2.94,2.94,0,0,0,.531.721,9.922,9.922,0,0,0,1.182.79,1.009,1.009,0,0,1,.56,1.091c-.115.378-.475,1.238-.632,1.244a11.233,11.233,0,0,0,2.822,2.323,11,11,0,0,0,5.8,1.508,12.92,12.92,0,0,0,6.157-1.551l.1-.058c.135-.075.268-.15.4-.229.1-.063.209-.13.313-.2C1828.957-40.1,1829.015-40.141,1829.072-40.179ZM1828.341-56c-.755-.4-1.521-.794-2.286-1.171-.21.357-.419.736-.639,1.119.111.184.224.367.335.556.442-.059.874-.121,1.3-.177.316.092.641.185.955.285C1828.118-55.6,1828.232-55.807,1828.341-56Z" transform="translate(-1807.777 65.071)"/></svg>