<svg xmlns="http://www.w3.org/2000/svg" xmlns:xlink="http://www.w3.org/1999/xlink" width="22.375" height="22.375" viewBox="0 0 22.375 22.375">
  <defs>
    <clipPath id="clip-path">
      <circle id="Ellipse_19" data-name="Ellipse 19" cx="9.971" cy="9.971" r="9.971" transform="translate(3417.023 26.49)" fill="none"/>
    </clipPath>
  </defs>
  <g id="Group_123" data-name="Group 123" transform="translate(-3415.807 -25.274)">
    <g id="Group_122" data-name="Group 122">
      <g id="Group_121" data-name="Group 121" clip-path="url(#clip-path)">
        <g id="Group_120" data-name="Group 120">
          <g id="Group_119" data-name="Group 119">
            <path id="Path_162" data-name="Path 162" d="M3427.2,25.255a11,11,0,1,1-11.121,11A11.06,11.06,0,0,1,3427.2,25.255Zm6.678,6.7c-.018-.155-.037-.309-.057-.46l-.9.462c.149.3.291.6.436.917-.038.2-.078.414-.117.622l.885.108c-.073-.347-.156-.689-.235-1.022-.123-.166-.238-.334-.358-.495Zm-1.018,12.92a10.254,10.254,0,0,0,3.646-5.114c.5-1.7.89-3.16.873-3.237s-.191-.149-.339.018a4.2,4.2,0,0,0-.591.828,1.679,1.679,0,0,1-.136.563c-.069.094-.317.11-.391-.177a9.541,9.541,0,0,0-.485-1.355,2.465,2.465,0,0,0-.9-.712,7.118,7.118,0,0,1-1.221-.4c-.09-.087-.372-.293-.417-.265a.448.448,0,0,0-.036.41c.07.17.331.573.432.518a.745.745,0,0,1,.6.006.667.667,0,0,1-.236.882c-.385.262-1.644.6-1.857.145a14.8,14.8,0,0,0-.9-1.642,2.132,2.132,0,0,0,.251,1.026c.237.549.973,1.855,1.191,1.745s.716-.2.643.047a4.535,4.535,0,0,1-.689,1.256,3.156,3.156,0,0,0-.81,1.23,2.472,2.472,0,0,1-.219,1.1,6.906,6.906,0,0,0-.935.9,4.7,4.7,0,0,1-1.293,1.066,1.485,1.485,0,0,1-1.047-.427,5.416,5.416,0,0,1-.575-1.55,3.643,3.643,0,0,0-.054-1.362c-.128-.364-.839-1.363-1.284-1.339a5,5,0,0,1-2.044-.349,3.331,3.331,0,0,1-.825-1.576,6.211,6.211,0,0,1,.581-1.951,4.961,4.961,0,0,1,1.723-1.208,5.317,5.317,0,0,1,1.745-.073,1.661,1.661,0,0,0,.457.665c.192.124.762.368.833.267a1.01,1.01,0,0,1,.794-.231,5.8,5.8,0,0,0,1.175.2.984.984,0,0,0,.312-.35c.028-.106-.056-.414-.251-.449a2.337,2.337,0,0,1-.835-.325,2.725,2.725,0,0,0-.327-.434.224.224,0,0,0-.241.159c-.038.133-.21.4-.3.293a1.925,1.925,0,0,1-.322-.554.8.8,0,0,0-.2-.478c-.12-.088-.482-.341-.552-.373s-.25-.046-.242.039a.923.923,0,0,0,.29.479c.146.093.472.408.4.491s-.361.2-.47.06-.446-.552-.522-.632a.712.712,0,0,0-.592-.145,3.559,3.559,0,0,0-.869.634c-.127.183-.611.66-.8.634s-.671-.274-.672-.5.189-.78.42-.77.792-.05.722-.16-.283-.463-.324-.55a.337.337,0,0,1,.176-.4,3.272,3.272,0,0,0,.818-.385,2,2,0,0,1,.5-.4c.076-.006.263-.061.249-.118a.453.453,0,0,1,.036-.291c.05-.05.21-.113.246-.032a.814.814,0,0,0,.523.315c.214,0,.817-.073.869-.19s.252-.393.332-.371.266.017.233-.056-.026-.28.09-.3.386-.106.345-.136a.679.679,0,0,0-.336-.077c-.1.017-.416.016-.46-.043s-.161-.207-.167-.207-.018-.005-.016-.009a.115.115,0,0,0-.025-.055c-.018-.022-.029-.091.009-.107a.6.6,0,0,0,.191-.139c.027-.046.07-.164.032-.166a.606.606,0,0,0-.242.051,1.913,1.913,0,0,0-.291.25c-.049.064-.125.285-.063.325s.189.247.134.36-.282.456-.377.483-.4,0-.449-.128-.282-.4-.392-.358a1.854,1.854,0,0,1-.5.125.367.367,0,0,1-.166-.275c.012-.109.119-.4.212-.438a2.1,2.1,0,0,0,.469-.3,1.511,1.511,0,0,1,.569-.334,9.017,9.017,0,0,1,1.349-.058c.411.024,2.054.089,2.707.067s1.16-.486.423-1l-.746-.342c-.032-.013-.064-.028-.095-.042-.082-.036-.165-.072-.248-.106s-.188-.075-.283-.111l-.1-.037a10.2,10.2,0,0,0-3.482-.609,7.836,7.836,0,0,0-3.6.664c-1.546.877-2.763,1.6-2.7,1.612a.3.3,0,0,1,.062.021.149.149,0,0,1,.046-.008c.022,0,.056.041.093.093a.293.293,0,0,1,.089.1c.013.033.037.093.064.159l.016.033c.018.04.04.1.062.161s.051.128.057.15l0,.017c.015.044.027.08.033.1a.3.3,0,0,1-.067.147.389.389,0,0,1-.082.154c-.066.066-.207.229-.3.35a1.621,1.621,0,0,0-.133.238.326.326,0,0,1-.082.092.353.353,0,0,1-.087.087,1.194,1.194,0,0,0-.243.256,3.538,3.538,0,0,0-.185.491c-.042.169-.149.3-.237.286a.887.887,0,0,1-.4-.613c-.047-.312-.323-.817-.557-.518s-.749,1.133-.733,1.12.005,0,.01.009a.241.241,0,0,1,.019-.033,2.9,2.9,0,0,1,.1.388c.026.092.052.2.076.31l0,.019c.064.27.131.555.175.736a.966.966,0,0,1-.093.568c-.015.251-.056.452-.14.507-.235.159-.873.663-1,.783a3.119,3.119,0,0,0-.483,1.268v1.3a5.432,5.432,0,0,0,.5,1.714,1.273,1.273,0,0,1,.159.08c.009-.015.02-.022.033-.018a1.41,1.41,0,0,1,.278.214,1.861,1.861,0,0,1,.279.232c.041.042.1.1.165.178l.212.2a2.173,2.173,0,0,1,.261.332,1.8,1.8,0,0,1,.233.323,2.344,2.344,0,0,0,.418.568,7.812,7.812,0,0,0,.932.622.8.8,0,0,1,.441.86c-.091.3-.374.976-.5.98a8.833,8.833,0,0,0,2.224,1.831,8.668,8.668,0,0,0,4.574,1.188,10.185,10.185,0,0,0,4.852-1.222l.081-.046c.106-.058.212-.118.316-.18.082-.05.164-.1.246-.154Zm-.576-12.471c-.594-.315-1.2-.626-1.8-.923-.165.281-.33.58-.5.881.088.146.177.29.264.439.349-.047.689-.1,1.026-.139.249.072.505.145.752.224C3432.112,32.717,3432.2,32.556,3432.287,32.4Z" fill="#e8e1dd" fill-rule="evenodd"/>
          </g>
        </g>
      </g>
    </g>
    <path id="Path_163" data-name="Path 163" d="M3427,47.649a11.187,11.187,0,1,1,11.187-11.188A11.2,11.2,0,0,1,3427,47.649Zm0-21.811a10.623,10.623,0,1,0,10.623,10.623A10.635,10.635,0,0,0,3427,25.838Z" fill="#e8e1dd"/>
  </g>
</svg>
