<svg xmlns="http://www.w3.org/2000/svg" width="8.99" height="8.744" viewBox="0 0 8.99 8.744">
  <path id="Path_164" data-name="Path 164" d="M3655.79,37.057c-1.693,1.748-3.035,3.158-3.046,3.169l-.326.343-.326-.343c-.011-.011-1.355-1.421-3.046-3.169a3.537,3.537,0,0,1-1.119-2.7,2.585,2.585,0,0,1,2.625-2.535,2.413,2.413,0,0,0,3.732,0,2.585,2.585,0,0,1,2.623,2.535A3.53,3.53,0,0,1,3655.79,37.057Zm.218-2.647a1.791,1.791,0,0,0-.6-1.287,1.814,1.814,0,0,0-1.124-.4,1.347,1.347,0,0,0-1.416,1.265.411.411,0,0,1-.434.354.422.422,0,0,1-.466-.36,1.347,1.347,0,0,0-1.416-1.259,1.7,1.7,0,0,0-1.726,1.686,2.644,2.644,0,0,0,.866,2.023c1.2,1.242,2.225,2.31,2.726,2.832.5-.522,1.529-1.59,2.725-2.832A2.634,2.634,0,0,0,3656.008,34.41Z" transform="translate(-3647.922 -31.825)" fill="#e8e1dd"/>
</svg>
