<svg xmlns="http://www.w3.org/2000/svg" width="8.99" height="8.744" viewBox="0 0 8.99 8.744">
  <path id="Path_235" data-name="Path 235" d="M3254.193,37.057c-1.692,1.748-3.035,3.158-3.046,3.169l-.326.343-.326-.343c-.011-.011-1.355-1.421-3.045-3.169a3.535,3.535,0,0,1-1.12-2.7,2.585,2.585,0,0,1,2.626-2.535,2.412,2.412,0,0,0,3.731,0,2.585,2.585,0,0,1,2.623,2.535A3.53,3.53,0,0,1,3254.193,37.057Zm.218-2.647a1.791,1.791,0,0,0-.6-1.287,1.814,1.814,0,0,0-1.124-.4,1.347,1.347,0,0,0-1.416,1.265.411.411,0,0,1-.434.354.42.42,0,0,1-.465-.36,1.348,1.348,0,0,0-1.416-1.259,1.807,1.807,0,0,0-1.124.4,1.785,1.785,0,0,0-.6,1.287,2.638,2.638,0,0,0,.865,2.023c1.2,1.242,2.225,2.31,2.726,2.832.5-.522,1.529-1.59,2.725-2.832A2.633,2.633,0,0,0,3254.411,34.41Z" transform="translate(-3246.325 -31.825)" fill="#060706"/>
</svg>
