<svg xmlns="http://www.w3.org/2000/svg" width="10.936" height="10.637" viewBox="0 0 10.936 10.637">
  <path id="Path_339" data-name="Path 339" d="M2279.78,49.977c-2.059,2.126-3.691,3.842-3.705,3.855l-.4.417-.4-.417c-.014-.013-1.648-1.729-3.705-3.855a4.3,4.3,0,0,1-1.361-3.282,3.143,3.143,0,0,1,3.193-3.083,2.935,2.935,0,0,0,4.539,0,3.143,3.143,0,0,1,3.191,3.083A4.3,4.3,0,0,1,2279.78,49.977Zm.266-3.22a2.171,2.171,0,0,0-.731-1.565,2.2,2.2,0,0,0-1.367-.486,1.64,1.64,0,0,0-1.723,1.538.5.5,0,0,1-.527.431.511.511,0,0,1-.566-.438,1.641,1.641,0,0,0-1.723-1.531,2.064,2.064,0,0,0-2.1,2.051,3.211,3.211,0,0,0,1.053,2.461c1.457,1.511,2.707,2.81,3.316,3.445.608-.635,1.86-1.934,3.315-3.445A3.207,3.207,0,0,0,2280.046,46.757Z" transform="translate(-2270.21 -43.612)" fill="#0b0d0f"/>
</svg>
