<svg xmlns="http://www.w3.org/2000/svg" width="11.683" height="11.683" viewBox="0 0 11.683 11.683">
  <path id="Path_346" data-name="Path 346" d="M2927.5,4771.519h-3.556a3.168,3.168,0,0,0-4.571,0h-3.556v-1.947a1.714,1.714,0,0,1,1.7-1.7h8.275a1.714,1.714,0,0,1,1.7,1.7Zm0,.974v5.354a1.714,1.714,0,0,1-1.7,1.7h-8.275a1.714,1.714,0,0,1-1.7-1.7v-5.354h2.92a3.053,3.053,0,0,0-.243,1.216,3.164,3.164,0,1,0,6.329,0,3.058,3.058,0,0,0-.244-1.216Zm-8.032,1.216a2.191,2.191,0,1,1,2.19,2.191A2.189,2.189,0,0,1,2919.471,4773.709Z" transform="translate(-2915.82 -4767.868)" fill="#b7b1ae"/>
</svg>
