<svg xmlns="http://www.w3.org/2000/svg" xmlns:xlink="http://www.w3.org/1999/xlink" width="142.236" height="24.785" viewBox="0 0 142.236 24.785">
  <defs>
    <clipPath id="clip-path">
      <circle id="Ellipse_44" data-name="Ellipse 44" cx="11.045" cy="11.045" r="11.045" transform="translate(1805.454 4770.215)" fill="none"/>
    </clipPath>
  </defs>
  <g id="Group_324" data-name="Group 324" transform="translate(-1804.106 -4768.868)">
    <g id="Group_317" data-name="Group 317">
      <path id="Path_347" data-name="Path 347" d="M1840.194,4780.807l-2.135-7.631h1.439l1.892,7.282h-.423l1.741-7.282h1.786l1.756,7.282h-.408l1.877-7.282h1.408l-2.15,7.631h-1.847l-1.756-7.282h.454l-1.817,7.282Z" fill="#b7b1ae"/>
      <path id="Path_348" data-name="Path 348" d="M1852.776,4780.958a2.847,2.847,0,0,1-1.309-.3,2.311,2.311,0,0,1-.947-.871,2.457,2.457,0,0,1-.349-1.309,2.394,2.394,0,0,1,.364-1.3,2.558,2.558,0,0,1,.977-.9,2.843,2.843,0,0,1,1.355-.325,2.635,2.635,0,0,1,.8.121,2.293,2.293,0,0,1,.643.311,1.124,1.124,0,0,1,.371.4l-.136.333v-1.439a1.5,1.5,0,0,0-.356-1.052,1.321,1.321,0,0,0-1.022-.386,1.43,1.43,0,0,0-.87.25,1.184,1.184,0,0,0-.446.75h-1.394a2.014,2.014,0,0,1,.417-1.167,2.559,2.559,0,0,1,1-.772,3.206,3.206,0,0,1,1.309-.272,3.516,3.516,0,0,1,1.371.257,2.132,2.132,0,0,1,.976.81,2.5,2.5,0,0,1,.364,1.4v5.314h-1.348v-1.5l.531.2-1.2,1.212a2.879,2.879,0,0,1-.484.173A2.489,2.489,0,0,1,1852.776,4780.958Zm.318-1.211a1.7,1.7,0,0,0,.78-.182,1.454,1.454,0,0,0,.559-.484,1.181,1.181,0,0,0-.242-1.59,1.636,1.636,0,0,0-1.1-.378,1.756,1.756,0,0,0-.78.166,1.343,1.343,0,0,0-.538.462,1.187,1.187,0,0,0-.2.674,1.218,1.218,0,0,0,.432.954A1.585,1.585,0,0,0,1853.094,4779.747Z" fill="#b7b1ae"/>
      <path id="Path_349" data-name="Path 349" d="M1858.393,4780.807v-10.6h1.347v10.6Z" fill="#b7b1ae"/>
      <path id="Path_350" data-name="Path 350" d="M1862.3,4780.807v-10.6h1.347v6.223l3.165-3.255h1.787l-3.544,3.452,3.74,4.179h-1.8l-3.347-4.027v4.027Z" fill="#b7b1ae"/>
      <path id="Path_351" data-name="Path 351" d="M1873.534,4772.283v-1.65h1.756v1.65Zm.211,8.524v-7.631h1.348v7.631Z" fill="#b7b1ae"/>
      <path id="Path_352" data-name="Path 352" d="M1877.651,4780.807v-7.631H1879v1.121l1.029-1.06a2.549,2.549,0,0,1,.47-.144,3.078,3.078,0,0,1,.681-.068,2.992,2.992,0,0,1,1.529.378,2.472,2.472,0,0,1,.992,1.075,3.683,3.683,0,0,1,.341,1.636v4.693h-1.333v-4.33a2.969,2.969,0,0,0-.219-1.2,1.692,1.692,0,0,0-.629-.765,1.882,1.882,0,0,0-2.339.333,2.39,2.39,0,0,0-.522,1.628v4.33Z" fill="#b7b1ae"/>
      <path id="Path_353" data-name="Path 353" d="M1889.31,4774.433v-1.257h4.769v1.257Zm1.711,6.374v-9.9h1.347v9.9Z" fill="#b7b1ae"/>
      <path id="Path_354" data-name="Path 354" d="M1895.759,4780.807v-10.6h1.347v4.089l1.03-1.06a2.173,2.173,0,0,1,.432-.144,2.932,2.932,0,0,1,.688-.068,3.056,3.056,0,0,1,1.56.378,2.472,2.472,0,0,1,.992,1.075,3.683,3.683,0,0,1,.341,1.636v4.693h-1.333v-4.33a2.95,2.95,0,0,0-.22-1.2,1.691,1.691,0,0,0-.628-.765,1.882,1.882,0,0,0-2.339.333,2.39,2.39,0,0,0-.523,1.628v4.33Z" fill="#b7b1ae"/>
      <path id="Path_355" data-name="Path 355" d="M1907.841,4780.958a4.02,4.02,0,0,1-1.907-.454,3.376,3.376,0,0,1-1.356-1.279,3.81,3.81,0,0,1-.166-3.415,4.925,4.925,0,0,1,1.007-1.422l1.044-1.076a2.89,2.89,0,0,1,1.378-.287,3.6,3.6,0,0,1,1.544.348,3.221,3.221,0,0,1,1.257,1.067,3.533,3.533,0,0,1,.6,1.795l-1.12,1.2H1905.4a2.559,2.559,0,0,0,.423,1.189,2.348,2.348,0,0,0,.886.78,2.6,2.6,0,0,0,1.189.272,2.706,2.706,0,0,0,1.2-.25,3.254,3.254,0,0,0,.893-.628l.712,1a3.777,3.777,0,0,1-1.272.856A4.093,4.093,0,0,1,1907.841,4780.958Zm2.105-4.739a2.923,2.923,0,0,0-.379-1,2.028,2.028,0,0,0-.742-.7,2.281,2.281,0,0,0-1.135-.265,2.086,2.086,0,0,0-1,.243,2.222,2.222,0,0,0-.772.688,2.7,2.7,0,0,0-.439,1.037Z" fill="#b7b1ae"/>
      <path id="Path_356" data-name="Path 356" d="M1916.9,4780.807v-10.6h1.348v10.6Z" fill="#b7b1ae"/>
      <path id="Path_357" data-name="Path 357" d="M1920.59,4772.283v-1.65h1.756v1.65Zm.211,8.524v-7.631h1.348v7.631Z" fill="#b7b1ae"/>
      <path id="Path_358" data-name="Path 358" d="M1927.675,4783.683a3.811,3.811,0,0,1-1.559-.3,2.611,2.611,0,0,1-1.09-.871,2.392,2.392,0,0,1-.44-1.34h1.394a1.272,1.272,0,0,0,.249.651,1.528,1.528,0,0,0,.621.485,2.284,2.284,0,0,0,.946.182,1.925,1.925,0,0,0,1.075-.3,1.9,1.9,0,0,0,.7-.81,2.7,2.7,0,0,0,.243-1.165v-1.741l.529.151-1.362,1.423a2.424,2.424,0,0,1-.553.182,3.467,3.467,0,0,1-.749.075,3.564,3.564,0,0,1-1.832-.461,3.271,3.271,0,0,1-1.219-1.227,3.342,3.342,0,0,1-.431-1.673,3.3,3.3,0,0,1,.31-1.378,5.112,5.112,0,0,1,.931-1.348l.893-.953a3.348,3.348,0,0,1,.523-.167,2.848,2.848,0,0,1,.674-.075,3.692,3.692,0,0,1,1.044.151,3.087,3.087,0,0,1,.924.44,2.2,2.2,0,0,1,.636.665l-.318.47v-1.575h1.347v6.374a4.643,4.643,0,0,1-.2,1.461,3.337,3.337,0,0,1-.78,1.219l-1.12,1.181a3.075,3.075,0,0,1-.591.19A3.573,3.573,0,0,1,1927.675,4783.683Zm.212-4.6a1.937,1.937,0,0,0,1.075-.3,1.969,1.969,0,0,0,.719-.825,2.506,2.506,0,0,0,.235-1.158,2.7,2.7,0,0,0-.371-1.393,2.361,2.361,0,0,0-.893-.863,2.333,2.333,0,0,0-1.113-.288,1.982,1.982,0,0,0-1.076.295,1.934,1.934,0,0,0-.718.818,2.682,2.682,0,0,0-.25,1.173,2.6,2.6,0,0,0,.348,1.378,2.338,2.338,0,0,0,.9.871A2.4,2.4,0,0,0,1927.887,4779.081Z" fill="#b7b1ae"/>
      <path id="Path_359" data-name="Path 359" d="M1933.716,4780.807v-10.6h1.347v4.089l1.03-1.06a2.157,2.157,0,0,1,.431-.144,2.946,2.946,0,0,1,.689-.068,3.058,3.058,0,0,1,1.56.378,2.483,2.483,0,0,1,.992,1.075,3.685,3.685,0,0,1,.34,1.636v4.693h-1.332v-4.33a2.968,2.968,0,0,0-.22-1.2,1.691,1.691,0,0,0-.628-.765,1.883,1.883,0,0,0-2.34.333,2.4,2.4,0,0,0-.522,1.628v4.33Z" fill="#b7b1ae"/>
      <path id="Path_360" data-name="Path 360" d="M1941.573,4774.433v-1.257h4.769v1.257Zm1.712,6.374v-9.9h1.347v9.9Z" fill="#b7b1ae"/>
    </g>
    <g id="Group_319" data-name="Group 319">
      <g id="Group_318" data-name="Group 318">
        <path id="Path_361" data-name="Path 361" d="M1838.275,4785.529v-.839h.692v.839Zm.022,4.553v-3.813h.655v3.813Z" fill="#b7b1ae"/>
        <path id="Path_362" data-name="Path 362" d="M1841.639,4790.082v-3.813h.632v.67a1.329,1.329,0,0,1,1.262-.778c.948,0,1.333.6,1.333,1.448v2.473h-.654v-2.319c0-.723-.332-1.032-.863-1.032-1.017,0-1.063,1.109-1.063,1.664v1.687Z" fill="#b7b1ae"/>
        <path id="Path_363" data-name="Path 363" d="M1848.84,4790.082a.851.851,0,0,1-.979-.948v-2.318h-.893v-.547h.893v-1.179h.647v1.179h1.055v.547h-1.055v2.264a.382.382,0,0,0,.439.439h.755v.563Z" fill="#b7b1ae"/>
        <path id="Path_364" data-name="Path 364" d="M1851.588,4788.172a1.79,1.79,0,0,1,1.71-2.011,1.749,1.749,0,0,1,1.663,2.164h-2.718c.031.986.562,1.31,1.108,1.31a1.1,1.1,0,0,0,1.033-.755l.6.216a1.673,1.673,0,0,1-1.656,1.093C1852.281,4790.189,1851.588,4789.481,1851.588,4788.172Zm2.711-.37a1.009,1.009,0,0,0-1-1.117,1.093,1.093,0,0,0-1.04,1.117Z" fill="#b7b1ae"/>
        <path id="Path_365" data-name="Path 365" d="M1857.394,4790.082v-3.813h.631v.824a1.381,1.381,0,0,1,1.271-.878,1.228,1.228,0,0,1,.385.046v.663a3.052,3.052,0,0,0-.432-.039c-.855,0-1.209.562-1.209,1.479v1.718Z" fill="#b7b1ae"/>
        <path id="Path_366" data-name="Path 366" d="M1861.852,4790.082v-3.813h.631v.67a1.331,1.331,0,0,1,1.263-.778c.947,0,1.332.6,1.332,1.448v2.473h-.654v-2.319c0-.723-.331-1.032-.863-1.032-1.017,0-1.063,1.109-1.063,1.664v1.687Z" fill="#b7b1ae"/>
        <path id="Path_367" data-name="Path 367" d="M1867.457,4789.112c0-1.048,1.163-1.418,2.426-1.518v-.132c0-.454-.254-.747-.847-.747a.963.963,0,0,0-1.024.7l-.632-.209a1.566,1.566,0,0,1,1.656-1.047c1.033,0,1.495.532,1.495,1.325v1.779c0,.2.069.254.254.254h.378v.563h-.517c-.531,0-.662-.239-.7-.616a1.374,1.374,0,0,1-1.271.723A1.072,1.072,0,0,1,1867.457,4789.112Zm2.426-.632v-.409c-.947.093-1.756.347-1.756.986,0,.362.247.593.717.593A1.044,1.044,0,0,0,1869.883,4788.48Z" fill="#b7b1ae"/>
        <path id="Path_368" data-name="Path 368" d="M1874.55,4790.082a.851.851,0,0,1-.979-.948v-2.318h-.893v-.547h.893v-1.179h.647v1.179h1.055v.547h-1.055v2.264a.382.382,0,0,0,.439.439h.755v.563Z" fill="#b7b1ae"/>
        <path id="Path_369" data-name="Path 369" d="M1877.6,4785.529v-.839h.693v.839Zm.023,4.553v-3.813h.655v3.813Z" fill="#b7b1ae"/>
        <path id="Path_370" data-name="Path 370" d="M1880.655,4788.179a1.813,1.813,0,1,1,1.809,2.01A1.863,1.863,0,0,1,1880.655,4788.179Zm2.926.008c0-.97-.477-1.456-1.117-1.456s-1.124.486-1.124,1.456.478,1.433,1.124,1.433S1883.581,4789.158,1883.581,4788.187Z" fill="#b7b1ae"/>
        <path id="Path_371" data-name="Path 371" d="M1886.654,4790.082v-3.813h.631v.67a1.331,1.331,0,0,1,1.263-.778c.947,0,1.332.6,1.332,1.448v2.473h-.654v-2.319c0-.723-.332-1.032-.863-1.032-1.017,0-1.063,1.109-1.063,1.664v1.687Z" fill="#b7b1ae"/>
        <path id="Path_372" data-name="Path 372" d="M1892.258,4789.112c0-1.048,1.163-1.418,2.426-1.518v-.132c0-.454-.254-.747-.847-.747a.963.963,0,0,0-1.024.7l-.632-.209a1.566,1.566,0,0,1,1.656-1.047c1.033,0,1.495.532,1.495,1.325v1.779c0,.2.069.254.254.254h.378v.563h-.517c-.531,0-.662-.239-.7-.616a1.374,1.374,0,0,1-1.271.723A1.072,1.072,0,0,1,1892.258,4789.112Zm2.426-.632v-.409c-.947.093-1.756.347-1.756.986,0,.362.247.593.717.593A1.044,1.044,0,0,0,1894.684,4788.48Z" fill="#b7b1ae"/>
        <path id="Path_373" data-name="Path 373" d="M1898.065,4790.082v-5.392h.646v5.392Z" fill="#b7b1ae"/>
      </g>
    </g>
    <g id="Group_323" data-name="Group 323">
      <g id="Group_322" data-name="Group 322" clip-path="url(#clip-path)">
        <g id="Group_321" data-name="Group 321">
          <g id="Group_320" data-name="Group 320">
            <path id="Path_374" data-name="Path 374" d="M1816.73,4768.847a12.183,12.183,0,1,1-12.319,12.182A12.25,12.25,0,0,1,1816.73,4768.847Zm7.4,7.418c-.019-.172-.041-.343-.063-.509-.32.165-.656.335-1,.512.165.328.322.669.483,1.015-.042.227-.086.459-.129.689.333.042.66.08.98.12-.081-.385-.173-.763-.261-1.133-.136-.184-.264-.369-.4-.547C1823.868,4776.362,1824,4776.313,1824.127,4776.265ZM1823,4790.577a11.361,11.361,0,0,0,4.039-5.664c.552-1.887.986-3.5.967-3.586s-.212-.166-.375.019a4.607,4.607,0,0,0-.656.918,1.834,1.834,0,0,1-.15.623c-.076.1-.352.122-.433-.2a10.582,10.582,0,0,0-.537-1.5,2.748,2.748,0,0,0-1-.788,7.922,7.922,0,0,1-1.353-.444c-.1-.1-.413-.324-.462-.294a.5.5,0,0,0-.04.455c.077.188.366.635.479.574a.828.828,0,0,1,.667.006.739.739,0,0,1-.261.978c-.426.29-1.822.66-2.057.16a16.4,16.4,0,0,0-.995-1.818,2.373,2.373,0,0,0,.279,1.136c.262.608,1.077,2.055,1.319,1.933s.793-.222.712.052a5,5,0,0,1-.763,1.391,3.518,3.518,0,0,0-.9,1.362,2.744,2.744,0,0,1-.242,1.218,7.647,7.647,0,0,0-1.036,1,5.206,5.206,0,0,1-1.432,1.18,1.645,1.645,0,0,1-1.16-.473,5.945,5.945,0,0,1-.637-1.716,4.02,4.02,0,0,0-.06-1.509c-.142-.4-.929-1.511-1.422-1.484a5.523,5.523,0,0,1-2.264-.387,3.686,3.686,0,0,1-.915-1.746,6.887,6.887,0,0,1,.644-2.161,5.506,5.506,0,0,1,1.909-1.338,5.888,5.888,0,0,1,1.933-.081,1.825,1.825,0,0,0,.506.737c.213.137.844.407.923.295a1.124,1.124,0,0,1,.879-.255,6.419,6.419,0,0,0,1.3.22,1.074,1.074,0,0,0,.345-.388c.031-.117-.061-.458-.277-.5a2.556,2.556,0,0,1-.925-.36,3,3,0,0,0-.363-.48.245.245,0,0,0-.266.176c-.042.147-.233.445-.332.324a2.122,2.122,0,0,1-.356-.614.9.9,0,0,0-.219-.529c-.133-.1-.534-.378-.612-.413s-.277-.051-.269.043a1.029,1.029,0,0,0,.321.531c.163.1.523.452.442.544s-.4.216-.521.066-.494-.611-.578-.7a.791.791,0,0,0-.656-.159,3.9,3.9,0,0,0-.963.7c-.14.2-.677.731-.882.7s-.744-.3-.745-.551.209-.864.465-.853.878-.055.8-.177-.313-.513-.359-.609a.374.374,0,0,1,.2-.442,3.626,3.626,0,0,0,.905-.427,2.264,2.264,0,0,1,.551-.442c.084-.006.291-.068.276-.131a.5.5,0,0,1,.039-.321c.056-.056.233-.125.274-.036a.9.9,0,0,0,.578.349c.238.006.905-.08.963-.211s.279-.435.368-.411.294.02.258-.061-.028-.31.1-.335.428-.118.382-.15a.733.733,0,0,0-.372-.086c-.114.019-.461.018-.51-.048s-.178-.229-.185-.229-.02,0-.017-.01a.122.122,0,0,0-.029-.061c-.019-.024-.032-.1.011-.119a.658.658,0,0,0,.211-.154c.03-.05.078-.181.036-.183a.662.662,0,0,0-.268.056,2.046,2.046,0,0,0-.323.278c-.053.07-.138.314-.069.36s.208.273.148.4-.312.506-.417.536-.439,0-.5-.142-.313-.442-.435-.4a2.039,2.039,0,0,1-.549.138.408.408,0,0,1-.184-.305c.013-.12.133-.438.236-.485a2.361,2.361,0,0,0,.519-.335,1.679,1.679,0,0,1,.63-.371,10.129,10.129,0,0,1,1.494-.064c.456.026,2.276.1,3,.074s1.285-.538.469-1.1l-.827-.378-.1-.047c-.091-.04-.182-.08-.275-.117s-.208-.084-.313-.123l-.111-.042a11.3,11.3,0,0,0-3.857-.674,8.693,8.693,0,0,0-3.987.735c-1.712.972-3.06,1.775-2.995,1.785a.472.472,0,0,1,.069.024.19.19,0,0,1,.051-.009c.024,0,.062.046.1.1a.309.309,0,0,1,.1.115c.014.036.041.1.071.176.006.013.013.026.017.037.02.044.045.109.07.177s.055.143.062.167l0,.019.036.108a.33.33,0,0,1-.074.164.434.434,0,0,1-.091.169c-.073.074-.229.254-.336.389a1.78,1.78,0,0,0-.147.263.361.361,0,0,1-.09.1.387.387,0,0,1-.1.1,1.307,1.307,0,0,0-.269.284,3.964,3.964,0,0,0-.2.543c-.047.188-.165.331-.263.317a.982.982,0,0,1-.439-.678c-.051-.346-.357-.9-.616-.574s-.83,1.255-.813,1.24.007,0,.011.01a.312.312,0,0,1,.022-.037,3.543,3.543,0,0,1,.116.43c.028.1.058.218.084.344l0,.021c.072.3.146.615.195.815a1.066,1.066,0,0,1-.1.63c-.016.278-.062.5-.155.562-.259.175-.967.734-1.1.867a3.449,3.449,0,0,0-.535,1.4v1.443a5.961,5.961,0,0,0,.551,1.9,1.728,1.728,0,0,1,.176.089c.01-.017.021-.025.036-.02a1.582,1.582,0,0,1,.309.238,2.01,2.01,0,0,1,.309.256c.045.047.109.116.182.2l.235.225a2.424,2.424,0,0,1,.289.368,1.979,1.979,0,0,1,.258.357,2.6,2.6,0,0,0,.463.629,8.777,8.777,0,0,0,1.032.69.884.884,0,0,1,.49.953c-.1.329-.415,1.08-.552,1.086a9.827,9.827,0,0,0,2.463,2.028,9.6,9.6,0,0,0,5.067,1.316,11.284,11.284,0,0,0,5.375-1.354l.09-.051c.117-.065.234-.131.349-.2.092-.055.183-.114.273-.17C1822.9,4790.642,1822.95,4790.611,1823,4790.577Zm-.638-13.815c-.659-.348-1.328-.693-2-1.022-.184.312-.366.643-.559.977.1.161.2.32.293.485.386-.051.763-.1,1.136-.154.276.081.559.161.834.248C1822.168,4777.113,1822.267,4776.934,1822.362,4776.762Z" fill="#b7b1ae" fill-rule="evenodd"/>
          </g>
        </g>
      </g>
    </g>
    <path id="Path_375" data-name="Path 375" d="M1816.5,4793.653a12.392,12.392,0,1,1,12.393-12.393A12.406,12.406,0,0,1,1816.5,4793.653Zm0-24.16a11.767,11.767,0,1,0,11.767,11.767A11.781,11.781,0,0,0,1816.5,4769.493Z" fill="#b7b1ae"/>
  </g>
</svg>
