<svg xmlns="http://www.w3.org/2000/svg" xmlns:xlink="http://www.w3.org/1999/xlink" width="130.998" height="22.375" viewBox="0 0 130.998 22.375">
  <defs>
    <clipPath id="clip-path">
      <circle id="Ellipse_28" data-name="Ellipse 28" cx="9.971" cy="9.971" r="9.971" transform="translate(3015.556 26.36)" fill="none"/>
    </clipPath>
  </defs>
  <g id="Group_196" data-name="Group 196" transform="translate(-3014.339 -25.144)">
    <g id="Group_189" data-name="Group 189">
      <path id="Path_236" data-name="Path 236" d="M3047.562,36.123l-1.967-7.029h1.325l1.743,6.708h-.391l1.6-6.708h1.647l1.618,6.708h-.377l1.729-6.708h1.3l-1.981,7.029h-1.7l-1.618-6.709h.417l-1.673,6.709Z" fill="#1a1818"/>
      <path id="Path_237" data-name="Path 237" d="M3059.15,36.262a2.628,2.628,0,0,1-1.2-.279,2.121,2.121,0,0,1-.872-.8,2.257,2.257,0,0,1-.321-1.206,2.213,2.213,0,0,1,.334-1.2,2.349,2.349,0,0,1,.9-.829,2.622,2.622,0,0,1,1.249-.3,2.426,2.426,0,0,1,.739.111,2.144,2.144,0,0,1,.592.286,1.055,1.055,0,0,1,.342.37l-.126.307V31.4a1.38,1.38,0,0,0-.327-.97,1.216,1.216,0,0,0-.941-.355,1.321,1.321,0,0,0-.8.23,1.088,1.088,0,0,0-.411.69h-1.284a1.847,1.847,0,0,1,.384-1.074,2.358,2.358,0,0,1,.92-.711,2.946,2.946,0,0,1,1.207-.251,3.233,3.233,0,0,1,1.262.237,1.966,1.966,0,0,1,.9.746,2.314,2.314,0,0,1,.334,1.29v4.9h-1.242V34.742l.489.181-1.1,1.116a2.674,2.674,0,0,1-.447.16A2.248,2.248,0,0,1,3059.15,36.262Zm.293-1.116a1.55,1.55,0,0,0,.719-.167,1.357,1.357,0,0,0,.516-.446,1.091,1.091,0,0,0-.223-1.465,1.516,1.516,0,0,0-1.012-.348,1.612,1.612,0,0,0-.717.153,1.243,1.243,0,0,0-.5.425,1.1,1.1,0,0,0-.181.621,1.118,1.118,0,0,0,.4.879A1.457,1.457,0,0,0,3059.443,35.146Z" fill="#1a1818"/>
      <path id="Path_238" data-name="Path 238" d="M3064.324,36.123V26.36h1.242v9.763Z" fill="#1a1818"/>
      <path id="Path_239" data-name="Path 239" d="M3067.923,36.123V26.36h1.241v5.732l2.915-3h1.645l-3.263,3.179,3.444,3.85h-1.659l-3.082-3.71v3.71Z" fill="#1a1818"/>
      <path id="Path_240" data-name="Path 240" d="M3078.271,28.271v-1.52h1.618v1.52Zm.2,7.852V29.094h1.242v7.029Z" fill="#1a1818"/>
      <path id="Path_241" data-name="Path 241" d="M3082.065,36.123V29.094h1.24v1.032l.949-.976a2.291,2.291,0,0,1,.433-.133,2.843,2.843,0,0,1,.627-.063,2.756,2.756,0,0,1,1.408.349,2.265,2.265,0,0,1,.914.99,3.382,3.382,0,0,1,.314,1.506v4.324h-1.228V32.134a2.742,2.742,0,0,0-.2-1.1,1.563,1.563,0,0,0-.58-.7,1.733,1.733,0,0,0-2.154.307,2.2,2.2,0,0,0-.482,1.5v3.989Z" fill="#1a1818"/>
      <path id="Path_242" data-name="Path 242" d="M3092.8,30.251V29.094h4.394v1.157Zm1.575,5.872V27h1.242v9.121Z" fill="#1a1818"/>
      <path id="Path_243" data-name="Path 243" d="M3098.744,36.123V26.36h1.241v3.766l.949-.976a1.928,1.928,0,0,1,.4-.133,2.719,2.719,0,0,1,.635-.063,2.811,2.811,0,0,1,1.435.349,2.265,2.265,0,0,1,.914.99,3.382,3.382,0,0,1,.314,1.506v4.324H3103.4V32.134a2.725,2.725,0,0,0-.2-1.1,1.568,1.568,0,0,0-.579-.7,1.734,1.734,0,0,0-2.155.307,2.2,2.2,0,0,0-.481,1.5v3.989Z" fill="#1a1818"/>
      <path id="Path_244" data-name="Path 244" d="M3109.872,36.262a3.7,3.7,0,0,1-1.757-.419,3.112,3.112,0,0,1-1.248-1.178,3.353,3.353,0,0,1-.453-1.75,3.4,3.4,0,0,1,.3-1.4,4.571,4.571,0,0,1,.928-1.311l.963-.99a2.658,2.658,0,0,1,1.268-.265,3.307,3.307,0,0,1,1.423.321,2.978,2.978,0,0,1,1.158.983,3.277,3.277,0,0,1,.558,1.653l-1.032,1.1h-4.352a2.362,2.362,0,0,0,.391,1.094,2.16,2.16,0,0,0,.816.719,2.388,2.388,0,0,0,1.095.251,2.485,2.485,0,0,0,1.1-.231,2.991,2.991,0,0,0,.823-.578l.655.92a3.468,3.468,0,0,1-1.171.788A3.743,3.743,0,0,1,3109.872,36.262Zm1.94-4.365a2.681,2.681,0,0,0-.35-.921,1.87,1.87,0,0,0-.682-.648,2.1,2.1,0,0,0-1.047-.244,1.92,1.92,0,0,0-.92.223,2.066,2.066,0,0,0-.712.634,2.487,2.487,0,0,0-.4.956Z" fill="#1a1818"/>
      <path id="Path_245" data-name="Path 245" d="M3118.213,36.123V26.36h1.242v9.763Z" fill="#1a1818"/>
      <path id="Path_246" data-name="Path 246" d="M3121.615,28.271v-1.52h1.618v1.52Zm.2,7.852V29.094h1.242v7.029Z" fill="#1a1818"/>
      <path id="Path_247" data-name="Path 247" d="M3128.142,38.772a3.5,3.5,0,0,1-1.436-.279,2.42,2.42,0,0,1-1-.8,2.209,2.209,0,0,1-.4-1.235h1.284a1.166,1.166,0,0,0,.23.6,1.393,1.393,0,0,0,.572.446,2.084,2.084,0,0,0,.871.168,1.72,1.72,0,0,0,1.631-1.019,2.485,2.485,0,0,0,.224-1.073v-1.6l.488.139-1.255,1.311a2.294,2.294,0,0,1-.509.168,3.228,3.228,0,0,1-.691.069,3.267,3.267,0,0,1-1.687-.425,3.012,3.012,0,0,1-1.123-1.13,3.078,3.078,0,0,1-.4-1.541,3.029,3.029,0,0,1,.285-1.269,4.75,4.75,0,0,1,.858-1.241l.823-.879a3.216,3.216,0,0,1,.482-.153,2.572,2.572,0,0,1,.619-.07,3.4,3.4,0,0,1,.963.14,2.869,2.869,0,0,1,.851.4,2.065,2.065,0,0,1,.586.614l-.293.432v-1.45h1.241v5.871a4.253,4.253,0,0,1-.189,1.346,3.042,3.042,0,0,1-.718,1.123l-1.032,1.087a2.807,2.807,0,0,1-.544.175A3.244,3.244,0,0,1,3128.142,38.772Zm.2-4.239a1.783,1.783,0,0,0,.989-.279,1.822,1.822,0,0,0,.663-.76,2.308,2.308,0,0,0,.216-1.067,2.484,2.484,0,0,0-.341-1.283,2.186,2.186,0,0,0-.823-.795,2.142,2.142,0,0,0-1.025-.265,1.812,1.812,0,0,0-.99.272,1.767,1.767,0,0,0-.663.753,2.479,2.479,0,0,0-.23,1.081,2.4,2.4,0,0,0,.321,1.269,2.152,2.152,0,0,0,.829.8A2.216,2.216,0,0,0,3128.338,34.533Z" fill="#1a1818"/>
      <path id="Path_248" data-name="Path 248" d="M3133.707,36.123V26.36h1.241v3.766l.948-.976a1.933,1.933,0,0,1,.4-.133,2.732,2.732,0,0,1,.635-.063,2.816,2.816,0,0,1,1.437.349,2.272,2.272,0,0,1,.914.99,3.4,3.4,0,0,1,.313,1.506v4.324h-1.227V32.134a2.741,2.741,0,0,0-.2-1.1,1.563,1.563,0,0,0-.579-.7,1.734,1.734,0,0,0-2.155.307,2.2,2.2,0,0,0-.481,1.5v3.989Z" fill="#1a1818"/>
      <path id="Path_249" data-name="Path 249" d="M3140.944,30.251V29.094h4.394v1.157Zm1.577,5.872V27h1.24v9.121Z" fill="#1a1818"/>
    </g>
    <g id="Group_191" data-name="Group 191" opacity="0.25">
      <g id="Group_190" data-name="Group 190">
        <path id="Path_250" data-name="Path 250" d="M3045.793,40.476V39.7h.638v.774Zm.022,4.19v-3.51h.6v3.51Z" fill="#060706"/>
        <path id="Path_251" data-name="Path 251" d="M3048.892,44.666v-3.51h.582v.617a1.224,1.224,0,0,1,1.163-.716c.872,0,1.227.553,1.227,1.333v2.276h-.6V42.532c0-.667-.3-.951-.794-.951-.935,0-.978,1.021-.978,1.532v1.553Z" fill="#060706"/>
        <path id="Path_252" data-name="Path 252" d="M3055.524,44.666a.783.783,0,0,1-.9-.872V41.66h-.822v-.5h.822V40.071h.6v1.085h.971v.5h-.971v2.084a.352.352,0,0,0,.4.4h.7v.518Z" fill="#060706"/>
        <path id="Path_253" data-name="Path 253" d="M3058.056,42.907a1.648,1.648,0,0,1,1.575-1.85,1.612,1.612,0,0,1,1.531,1.992h-2.5c.028.908.518,1.205,1.021,1.205a1.014,1.014,0,0,0,.95-.694l.553.2a1.54,1.54,0,0,1-1.525,1.007C3058.694,44.765,3058.056,44.113,3058.056,42.907Zm2.5-.34a.928.928,0,0,0-.921-1.028,1.007,1.007,0,0,0-.958,1.028Z" fill="#060706"/>
        <path id="Path_254" data-name="Path 254" d="M3063.4,44.666v-3.51h.581v.759a1.271,1.271,0,0,1,1.17-.808,1.131,1.131,0,0,1,.355.042v.61a2.878,2.878,0,0,0-.4-.036c-.786,0-1.112.518-1.112,1.362v1.581Z" fill="#060706"/>
        <path id="Path_255" data-name="Path 255" d="M3067.511,44.666v-3.51h.581v.617a1.225,1.225,0,0,1,1.162-.716c.873,0,1.227.553,1.227,1.333v2.276h-.6V42.532c0-.667-.3-.951-.794-.951-.937,0-.978,1.021-.978,1.532v1.553Z" fill="#060706"/>
        <path id="Path_256" data-name="Path 256" d="M3072.675,43.772c0-.964,1.069-1.3,2.232-1.4v-.121c0-.418-.234-.688-.779-.688a.886.886,0,0,0-.943.645l-.582-.191a1.44,1.44,0,0,1,1.525-.964c.95,0,1.375.489,1.375,1.219v1.638c0,.185.064.234.234.234h.348v.518h-.475c-.489,0-.61-.22-.646-.567a1.263,1.263,0,0,1-1.169.666A.987.987,0,0,1,3072.675,43.772Zm2.232-.581v-.376c-.871.085-1.616.319-1.616.908,0,.333.227.546.66.546A.961.961,0,0,0,3074.907,43.191Z" fill="#060706"/>
        <path id="Path_257" data-name="Path 257" d="M3079.206,44.666a.783.783,0,0,1-.9-.872V41.66h-.822v-.5h.822V40.071h.6v1.085h.971v.5h-.971v2.084a.352.352,0,0,0,.4.4h.7v.518Z" fill="#060706"/>
        <path id="Path_258" data-name="Path 258" d="M3082.014,40.476V39.7h.639v.774Zm.022,4.19v-3.51h.6v3.51Z" fill="#060706"/>
        <path id="Path_259" data-name="Path 259" d="M3084.83,42.914a1.669,1.669,0,1,1,1.667,1.851A1.715,1.715,0,0,1,3084.83,42.914Zm2.695.008c0-.894-.44-1.341-1.028-1.341s-1.036.447-1.036,1.341.44,1.318,1.036,1.318S3087.525,43.815,3087.525,42.922Z" fill="#060706"/>
        <path id="Path_260" data-name="Path 260" d="M3090.356,44.666v-3.51h.581v.617a1.225,1.225,0,0,1,1.162-.716c.873,0,1.227.553,1.227,1.333v2.276h-.6V42.532c0-.667-.305-.951-.794-.951-.937,0-.978,1.021-.978,1.532v1.553Z" fill="#060706"/>
        <path id="Path_261" data-name="Path 261" d="M3095.52,43.772c0-.964,1.069-1.3,2.232-1.4v-.121c0-.418-.234-.688-.779-.688a.886.886,0,0,0-.943.645l-.582-.191a1.44,1.44,0,0,1,1.525-.964c.95,0,1.375.489,1.375,1.219v1.638c0,.185.064.234.234.234h.348v.518h-.475c-.489,0-.61-.22-.646-.567a1.263,1.263,0,0,1-1.169.666A.987.987,0,0,1,3095.52,43.772Zm2.232-.581v-.376c-.871.085-1.616.319-1.616.908,0,.333.227.546.66.546A.961.961,0,0,0,3097.752,43.191Z" fill="#060706"/>
        <path id="Path_262" data-name="Path 262" d="M3100.867,44.666V39.7h.6v4.964Z" fill="#060706"/>
      </g>
    </g>
    <g id="Group_195" data-name="Group 195">
      <g id="Group_194" data-name="Group 194" clip-path="url(#clip-path)">
        <g id="Group_193" data-name="Group 193">
          <g id="Group_192" data-name="Group 192">
            <path id="Path_263" data-name="Path 263" d="M3025.735,25.125a11,11,0,1,1-11.121,11A11.059,11.059,0,0,1,3025.735,25.125Zm6.678,6.7c-.017-.156-.037-.31-.057-.46-.289.149-.592.3-.9.462.148.3.29.605.435.916-.038.2-.078.415-.116.623l.884.108c-.073-.348-.155-.689-.235-1.023-.123-.166-.238-.333-.358-.494C3032.179,31.909,3032.3,31.865,3032.413,31.822Zm-1.017,12.92a10.262,10.262,0,0,0,3.646-5.114c.5-1.7.89-3.16.872-3.237s-.191-.149-.338.018a4.138,4.138,0,0,0-.592.828,1.644,1.644,0,0,1-.136.562c-.068.1-.317.111-.39-.176a9.759,9.759,0,0,0-.485-1.356,2.49,2.49,0,0,0-.9-.711,7.213,7.213,0,0,1-1.222-.4c-.089-.086-.372-.292-.416-.265a.447.447,0,0,0-.036.411c.069.17.33.573.432.518a.746.746,0,0,1,.6.005.668.668,0,0,1-.236.883c-.384.262-1.644.6-1.856.145a14.907,14.907,0,0,0-.9-1.642,2.117,2.117,0,0,0,.251,1.026c.236.549.972,1.855,1.191,1.745s.716-.2.643.047a4.594,4.594,0,0,1-.689,1.256,3.174,3.174,0,0,0-.811,1.229,2.48,2.48,0,0,1-.219,1.1,6.829,6.829,0,0,0-.935.9,4.7,4.7,0,0,1-1.293,1.066,1.486,1.486,0,0,1-1.046-.427,5.4,5.4,0,0,1-.576-1.55,3.64,3.64,0,0,0-.053-1.362c-.129-.365-.84-1.364-1.285-1.339a4.974,4.974,0,0,1-2.043-.35,3.328,3.328,0,0,1-.826-1.576,6.219,6.219,0,0,1,.581-1.951,4.953,4.953,0,0,1,1.724-1.207,5.311,5.311,0,0,1,1.744-.073,1.661,1.661,0,0,0,.457.665c.192.124.762.367.834.266a1.007,1.007,0,0,1,.793-.23,5.8,5.8,0,0,0,1.176.2.985.985,0,0,0,.311-.351c.028-.106-.056-.413-.251-.448a2.355,2.355,0,0,1-.835-.325,2.668,2.668,0,0,0-.327-.434.224.224,0,0,0-.241.159c-.037.132-.209.4-.3.292a1.908,1.908,0,0,1-.322-.553.8.8,0,0,0-.2-.479c-.12-.088-.482-.34-.553-.372s-.25-.046-.242.039a.923.923,0,0,0,.29.479c.146.093.472.408.4.491s-.362.2-.47.06-.446-.552-.523-.633a.715.715,0,0,0-.592-.144,3.528,3.528,0,0,0-.869.634c-.127.183-.611.66-.8.634s-.672-.274-.673-.5.189-.781.42-.77.793-.05.722-.161-.283-.463-.324-.549a.337.337,0,0,1,.177-.4,3.265,3.265,0,0,0,.817-.385,2.015,2.015,0,0,1,.5-.4c.077-.006.263-.062.249-.118a.458.458,0,0,1,.036-.291c.05-.05.21-.113.247-.032a.812.812,0,0,0,.522.315c.214,0,.817-.073.869-.191s.252-.392.332-.371.266.018.233-.055-.025-.28.09-.3.387-.107.345-.136a.666.666,0,0,0-.335-.077c-.1.017-.417.016-.461-.044s-.161-.206-.167-.206-.018,0-.016-.009a.1.1,0,0,0-.025-.055c-.018-.022-.029-.092.009-.107a.6.6,0,0,0,.191-.139c.027-.046.071-.164.032-.166a.613.613,0,0,0-.242.051,1.9,1.9,0,0,0-.291.25c-.048.064-.125.284-.062.325s.188.247.133.359-.281.456-.376.483-.4,0-.45-.127-.282-.4-.392-.358a1.854,1.854,0,0,1-.5.125.367.367,0,0,1-.166-.276c.012-.108.12-.4.213-.437a2.1,2.1,0,0,0,.468-.3,1.526,1.526,0,0,1,.57-.335,9.157,9.157,0,0,1,1.348-.057c.411.023,2.054.089,2.707.067s1.16-.486.424-1l-.747-.341c-.031-.013-.063-.029-.095-.042-.082-.036-.164-.072-.248-.106s-.188-.075-.283-.111l-.1-.037a10.193,10.193,0,0,0-3.482-.609,7.834,7.834,0,0,0-3.6.664c-1.547.877-2.764,1.6-2.705,1.611a.309.309,0,0,1,.062.022.125.125,0,0,1,.047-.008c.021,0,.056.041.093.093a.279.279,0,0,1,.088.1c.013.033.038.093.065.159l.015.033c.018.04.04.1.063.16s.05.129.056.151l0,.017c.014.043.026.079.032.1a.3.3,0,0,1-.067.147.4.4,0,0,1-.082.154c-.066.066-.207.229-.3.35a1.571,1.571,0,0,0-.133.238.337.337,0,0,1-.081.091.345.345,0,0,1-.088.088,1.171,1.171,0,0,0-.242.256,3.439,3.439,0,0,0-.185.49c-.043.17-.15.3-.238.287a.9.9,0,0,1-.4-.613c-.047-.312-.323-.817-.556-.518s-.75,1.133-.734,1.119.006,0,.01.01a.329.329,0,0,1,.02-.034,3.357,3.357,0,0,1,.1.388c.026.093.052.2.076.31l0,.02c.065.27.132.554.175.736a.965.965,0,0,1-.093.568c-.015.251-.056.451-.14.507-.234.158-.873.663-1,.783a3.119,3.119,0,0,0-.483,1.268v1.3a5.432,5.432,0,0,0,.5,1.715,1.318,1.318,0,0,1,.16.08c.008-.015.019-.023.032-.018a1.444,1.444,0,0,1,.279.214,1.846,1.846,0,0,1,.279.231l.165.179.212.2a2.236,2.236,0,0,1,.26.332,1.753,1.753,0,0,1,.233.323,2.372,2.372,0,0,0,.418.567,7.835,7.835,0,0,0,.932.623.8.8,0,0,1,.442.86c-.092.3-.375.975-.5.98a8.863,8.863,0,0,0,2.223,1.831,8.672,8.672,0,0,0,4.574,1.188,10.182,10.182,0,0,0,4.852-1.222l.081-.046c.107-.059.212-.118.316-.18.083-.05.165-.1.246-.155C3031.3,44.8,3031.351,44.772,3031.4,44.742Zm-.577-12.471c-.594-.315-1.2-.627-1.8-.923-.165.281-.33.58-.5.881.088.146.177.29.264.439.349-.047.689-.095,1.026-.139.249.072.505.145.753.224C3030.644,32.587,3030.734,32.426,3030.819,32.271Z" fill="#040505" fill-rule="evenodd"/>
          </g>
        </g>
      </g>
    </g>
    <circle id="Ellipse_29" data-name="Ellipse 29" cx="10.905" cy="10.905" r="10.905" transform="translate(3014.622 25.426)" fill="none" stroke="#2e7b9d" stroke-miterlimit="10" stroke-width="0.564"/>
  </g>
</svg>
