<svg id="Layer_1" data-name="Layer 1" xmlns="http://www.w3.org/2000/svg" xmlns:xlink="http://www.w3.org/1999/xlink" width="203.54" height="34.79" viewBox="0 0 203.54 34.79"><defs><style>.cls-1,.cls-10{fill:none;}.cls-2{fill:#231f20;}.cls-3{opacity:0.25;}.cls-4{font-size:11.02px;fill:#020202;font-family:ABCWhyteTrial-Book, ABC Whyte Trial;letter-spacing:0.18em;}.cls-5{letter-spacing:0.18em;}.cls-6{letter-spacing:0.18em;}.cls-7{letter-spacing:0.17em;}.cls-8{clip-path:url(#clip-path);}.cls-9{fill:#010101;fill-rule:evenodd;}.cls-10{stroke:#438cad;stroke-miterlimit:10;stroke-width:0.88px;}</style><clipPath id="clip-path" transform="translate(-1811 -35.25)"><circle class="cls-1" cx="1828.39" cy="52.66" r="15.49"/></clipPath></defs><path class="cls-2" d="M1862.62,52.34l-3-10.92h2.06l2.71,10.42h-.61l2.49-10.42h2.56l2.51,10.42h-.58l2.68-10.42h2l-3.08,10.92h-2.64l-2.52-10.42h.65l-2.6,10.42Z" transform="translate(-1811 -35.25)"/><path class="cls-2" d="M1880.63,52.56a4.06,4.06,0,0,1-1.87-.44,3.32,3.32,0,0,1-1.36-1.24,3.57,3.57,0,0,1-.5-1.88,3.47,3.47,0,0,1,.52-1.86,3.7,3.7,0,0,1,1.4-1.29,4.09,4.09,0,0,1,1.94-.47,3.64,3.64,0,0,1,1.15.18,3.15,3.15,0,0,1,.92.44,1.65,1.65,0,0,1,.53.57l-.19.48V45a2.13,2.13,0,0,0-.51-1.5,1.9,1.9,0,0,0-1.47-.56,2,2,0,0,0-1.24.36,1.7,1.7,0,0,0-.64,1.07h-2a2.77,2.77,0,0,1,.59-1.66,3.67,3.67,0,0,1,1.43-1.11,4.59,4.59,0,0,1,1.88-.39,5,5,0,0,1,2,.37,3.11,3.11,0,0,1,1.4,1.16,3.62,3.62,0,0,1,.51,2v7.61h-1.92V50.19l.75.29-1.71,1.73a4.68,4.68,0,0,1-.69.25A3.77,3.77,0,0,1,1880.63,52.56Zm.46-1.74a2.33,2.33,0,0,0,1.11-.26,2,2,0,0,0,.8-.69,1.65,1.65,0,0,0,.3-.95,1.7,1.7,0,0,0-.64-1.33,2.36,2.36,0,0,0-1.57-.54,2.49,2.49,0,0,0-1.12.24,2,2,0,0,0-.77.66,1.68,1.68,0,0,0-.28,1,1.72,1.72,0,0,0,.62,1.36A2.25,2.25,0,0,0,1881.09,50.82Z" transform="translate(-1811 -35.25)"/><path class="cls-2" d="M1888.67,52.34V37.17h1.93V52.34Z" transform="translate(-1811 -35.25)"/><path class="cls-2" d="M1894.26,52.34V37.17h1.93v8.91l4.53-4.66h2.56l-5.07,4.94,5.35,6H1901l-4.79-5.77v5.77Z" transform="translate(-1811 -35.25)"/><path class="cls-2" d="M1910.34,40.14V37.78h2.51v2.36Zm.3,12.2V41.42h1.93V52.34Z" transform="translate(-1811 -35.25)"/><path class="cls-2" d="M1916.23,52.34V41.42h1.93V43l1.48-1.52a3.23,3.23,0,0,1,.67-.2,4.13,4.13,0,0,1,1-.1,4.28,4.28,0,0,1,2.19.54,3.53,3.53,0,0,1,1.42,1.54,5.23,5.23,0,0,1,.49,2.34v6.72h-1.91v-6.2a4.25,4.25,0,0,0-.31-1.71,2.39,2.39,0,0,0-.9-1.09,2.43,2.43,0,0,0-1.39-.38,2.47,2.47,0,0,0-2,.85,3.42,3.42,0,0,0-.75,2.33v6.2Z" transform="translate(-1811 -35.25)"/><path class="cls-2" d="M1932.92,43.22v-1.8h6.83v1.8Zm2.45,9.12V38.17h1.93V52.34Z" transform="translate(-1811 -35.25)"/><path class="cls-2" d="M1942.15,52.34V37.17h1.93V43l1.47-1.52a3,3,0,0,1,.62-.2,4,4,0,0,1,1-.1,4.38,4.38,0,0,1,2.23.54,3.59,3.59,0,0,1,1.42,1.54,5.37,5.37,0,0,1,.48,2.34v6.72h-1.9v-6.2a4.24,4.24,0,0,0-.32-1.71,2.39,2.39,0,0,0-.9-1.09,2.42,2.42,0,0,0-1.38-.38,2.46,2.46,0,0,0-2,.85,3.42,3.42,0,0,0-.75,2.33v6.2Z" transform="translate(-1811 -35.25)"/><path class="cls-2" d="M1959.44,52.56a5.85,5.85,0,0,1-2.73-.65,4.91,4.91,0,0,1-1.94-1.84,5.16,5.16,0,0,1-.7-2.71,5.22,5.22,0,0,1,.46-2.17,7.08,7.08,0,0,1,1.44-2l1.5-1.54a4.18,4.18,0,0,1,2-.41,5.17,5.17,0,0,1,2.21.5,4.54,4.54,0,0,1,1.8,1.53,5.07,5.07,0,0,1,.87,2.57l-1.61,1.71H1956a3.81,3.81,0,0,0,.61,1.7,3.32,3.32,0,0,0,1.27,1.11,3.7,3.7,0,0,0,1.7.39,4,4,0,0,0,1.71-.35,4.75,4.75,0,0,0,1.28-.9l1,1.43a5.45,5.45,0,0,1-1.82,1.22A5.8,5.8,0,0,1,1959.44,52.56Zm3-6.79a4.16,4.16,0,0,0-.54-1.43,2.83,2.83,0,0,0-1.06-1,3.2,3.2,0,0,0-1.63-.38,3,3,0,0,0-1.43.34,3.14,3.14,0,0,0-1.1,1,4,4,0,0,0-.63,1.48Z" transform="translate(-1811 -35.25)"/><path class="cls-2" d="M1972.4,52.34V37.17h1.93V52.34Z" transform="translate(-1811 -35.25)"/><path class="cls-2" d="M1977.69,40.14V37.78h2.51v2.36Zm.3,12.2V41.42h1.93V52.34Z" transform="translate(-1811 -35.25)"/><path class="cls-2" d="M1987.83,56.46a5.41,5.41,0,0,1-2.23-.44,3.77,3.77,0,0,1-1.56-1.24,3.44,3.44,0,0,1-.63-1.92h2a1.85,1.85,0,0,0,.36.93,2.1,2.1,0,0,0,.89.69,3.13,3.13,0,0,0,1.35.26,2.68,2.68,0,0,0,2.54-1.58,3.86,3.86,0,0,0,.34-1.67V49l.76.22-2,2a3.83,3.83,0,0,1-.79.26,5.6,5.6,0,0,1-3.69-.56,4.67,4.67,0,0,1-1.75-1.75,4.82,4.82,0,0,1-.62-2.4,4.67,4.67,0,0,1,.45-2,7.27,7.27,0,0,1,1.33-1.93l1.28-1.36a4.15,4.15,0,0,1,.75-.24,4.08,4.08,0,0,1,1-.11,5.09,5.09,0,0,1,1.5.22,4.24,4.24,0,0,1,1.32.63,3.15,3.15,0,0,1,.91,1l-.46.67V41.42h1.93v9.12a6.76,6.76,0,0,1-.29,2.09,4.7,4.7,0,0,1-1.12,1.75l-1.6,1.69a4.63,4.63,0,0,1-.84.27A5.09,5.09,0,0,1,1987.83,56.46Zm.3-6.59a2.75,2.75,0,0,0,2.57-1.62,3.59,3.59,0,0,0,.34-1.65,3.94,3.94,0,0,0-.54-2,3.33,3.33,0,0,0-2.87-1.64,2.87,2.87,0,0,0-1.54.42,2.71,2.71,0,0,0-1,1.17,3.83,3.83,0,0,0-.36,1.68,3.68,3.68,0,0,0,.5,2,3.36,3.36,0,0,0,1.29,1.25A3.41,3.41,0,0,0,1988.13,49.87Z" transform="translate(-1811 -35.25)"/><path class="cls-2" d="M1996.47,52.34V37.17h1.93V43l1.48-1.52a2.89,2.89,0,0,1,.61-.2,4,4,0,0,1,1-.1,4.36,4.36,0,0,1,2.23.54,3.53,3.53,0,0,1,1.42,1.54,5.23,5.23,0,0,1,.49,2.34v6.72h-1.91v-6.2a4.25,4.25,0,0,0-.31-1.71,2.39,2.39,0,0,0-.9-1.09,2.43,2.43,0,0,0-1.39-.38,2.47,2.47,0,0,0-2,.85,3.42,3.42,0,0,0-.75,2.33v6.2Z" transform="translate(-1811 -35.25)"/><path class="cls-2" d="M2007.72,43.22v-1.8h6.83v1.8Zm2.45,9.12V38.17h1.93V52.34Z" transform="translate(-1811 -35.25)"/><g class="cls-3"><text class="cls-4" transform="translate(47.98 30.36)">i<tspan class="cls-5" x="4.77" y="0">n</tspan><tspan class="cls-6" x="13.15" y="0">t</tspan><tspan x="19.43" y="0">ern</tspan><tspan class="cls-7" x="42.09" y="0">a</tspan><tspan x="49.94" y="0">tional</tspan></text></g><g class="cls-8"><path class="cls-9" d="M1828.71,35.25a17.09,17.09,0,1,1-17.28,17.09A17.19,17.19,0,0,1,1828.71,35.25Zm10.38,10.41-.09-.72-1.41.72c.24.46.46.94.68,1.42l-.18,1,1.38.17c-.12-.54-.25-1.07-.37-1.59-.19-.26-.37-.52-.56-.77Zm-1.59,20.07c4.16-2.76,5.67-7.94,5.67-7.94.77-2.65,1.38-4.91,1.36-5s-.3-.24-.53,0a6.56,6.56,0,0,0-.92,1.29,2.58,2.58,0,0,1-.21.87c-.11.15-.49.18-.61-.27a15.07,15.07,0,0,0-.75-2.11,3.75,3.75,0,0,0-1.4-1.1,11.15,11.15,0,0,1-1.9-.62c-.14-.14-.58-.46-.65-.42a.71.71,0,0,0,0,.64c.11.27.51.89.67.81a1.14,1.14,0,0,1,.94,0,1,1,0,0,1-.37,1.37c-.6.4-2.56.92-2.89.22a24.29,24.29,0,0,0-1.39-2.55,3.2,3.2,0,0,0,.39,1.6c.37.85,1.51,2.88,1.85,2.71s1.11-.31,1,.07a7.2,7.2,0,0,1-1.07,2,5,5,0,0,0-1.26,1.91,3.84,3.84,0,0,1-.34,1.71,10.43,10.43,0,0,0-1.45,1.4,7.4,7.4,0,0,1-2,1.66,2.34,2.34,0,0,1-1.63-.67,8.14,8.14,0,0,1-.89-2.41,5.76,5.76,0,0,0-.09-2.11c-.2-.57-1.3-2.12-2-2.08a7.86,7.86,0,0,1-3.18-.55,5.14,5.14,0,0,1-1.28-2.44,9.65,9.65,0,0,1,.9-3,7.78,7.78,0,0,1,2.68-1.87,8.51,8.51,0,0,1,2.71-.12,2.65,2.65,0,0,0,.71,1c.3.19,1.18.57,1.3.41a1.62,1.62,0,0,1,1.23-.36,8.53,8.53,0,0,0,1.83.31,1.49,1.49,0,0,0,.48-.54c0-.17-.09-.64-.39-.7a3.6,3.6,0,0,1-1.3-.5,3.86,3.86,0,0,0-.51-.68.35.35,0,0,0-.37.25c-.06.21-.33.62-.47.45a3.23,3.23,0,0,1-.5-.86,1.26,1.26,0,0,0-.3-.74c-.19-.14-.75-.53-.86-.58s-.39-.07-.38.06a1.6,1.6,0,0,0,.45.75c.23.14.74.63.62.76s-.56.3-.73.09-.69-.85-.81-1a1.12,1.12,0,0,0-.92-.22,5.47,5.47,0,0,0-1.35,1c-.2.28-1,1-1.24,1s-1-.43-1-.78.29-1.21.65-1.19,1.23-.08,1.12-.25-.44-.72-.5-.86a.53.53,0,0,1,.27-.62,4.81,4.81,0,0,0,1.27-.59,3.28,3.28,0,0,1,.78-.62c.11,0,.4-.1.38-.19a.71.71,0,0,1,.06-.45c.08-.08.32-.17.38-.05a1.26,1.26,0,0,0,.81.49c.34,0,1.27-.11,1.35-.3s.39-.61.52-.57.41,0,.36-.09,0-.43.14-.47.6-.16.54-.21a1,1,0,0,0-.52-.12c-.16,0-.65,0-.72-.07s-.25-.32-.26-.32h0l0-.09s0-.14,0-.16a1.21,1.21,0,0,0,.3-.22c0-.07.11-.25,0-.26a1.18,1.18,0,0,0-.38.08,3.22,3.22,0,0,0-.45.39c-.08.1-.19.44-.1.51s.3.38.21.55a2.27,2.27,0,0,1-.58.75c-.15,0-.62,0-.7-.19s-.44-.62-.61-.56a2.76,2.76,0,0,1-.77.19.56.56,0,0,1-.26-.42c0-.17.18-.62.33-.68a4.11,4.11,0,0,0,.73-.47,2.29,2.29,0,0,1,.88-.52,13.71,13.71,0,0,1,2.1-.09c.64,0,3.19.13,4.2.1s1.81-.75.66-1.55l-1.16-.53-.15-.06-.38-.17-.44-.17-.16-.06a15.86,15.86,0,0,0-5.41-1,12.1,12.1,0,0,0-5.59,1c-2.4,1.36-4.29,2.49-4.2,2.5l.1,0h.07s.09.06.14.15a.35.35,0,0,1,.14.16l.1.24a.14.14,0,0,1,0,.06,1.94,1.94,0,0,1,.1.24c0,.11.08.2.09.24v0a.86.86,0,0,1,0,.15.46.46,0,0,1-.1.23.52.52,0,0,1-.13.23c-.1.11-.32.36-.47.55a2.3,2.3,0,0,0-.21.37.59.59,0,0,1-.12.14.92.92,0,0,1-.14.14,1.76,1.76,0,0,0-.37.39,4.8,4.8,0,0,0-.29.77c-.07.26-.23.46-.37.44a1.38,1.38,0,0,1-.62-1c-.07-.49-.5-1.27-.86-.81s-1.16,1.76-1.14,1.74a0,0,0,0,1,0,0s0-.05,0-.05.07.25.16.6q.06.21.12.48v0c.1.42.21.86.27,1.14a1.47,1.47,0,0,1-.14.89,1.17,1.17,0,0,1-.22.79c-.36.24-1.35,1-1.55,1.21a4.86,4.86,0,0,0-.75,2v2a8.1,8.1,0,0,0,.78,2.66l.24.12s0,0,0,0a1.79,1.79,0,0,1,.44.33,3.26,3.26,0,0,1,.43.36l.26.28.33.31a3.65,3.65,0,0,1,.4.52,2.48,2.48,0,0,1,.36.5,3.67,3.67,0,0,0,.65.88,11.76,11.76,0,0,0,1.45,1,1.23,1.23,0,0,1,.69,1.33c-.14.47-.58,1.52-.78,1.53s1.18,1.29,3.46,2.84a13.41,13.41,0,0,0,7.1,1.85,15.82,15.82,0,0,0,7.54-1.9l.13-.07.49-.28.38-.24C1837.36,65.82,1837.44,65.78,1837.5,65.73Zm-.89-19.38c-.92-.48-1.86-1-2.8-1.43-.26.44-.51.9-.78,1.37.13.23.27.45.41.68l1.59-.21,1.17.34C1836.34,46.85,1836.48,46.6,1836.61,46.35Z" transform="translate(-1811 -35.25)"/></g><circle class="cls-10" cx="17.38" cy="17.41" r="16.94"/></svg>