<svg id="e94a5209-09bb-4fe0-b2a9-bfbcb1af18ef" data-name="Layer 1" xmlns="http://www.w3.org/2000/svg" width="165.88" height="27.91" viewBox="0 0 165.88 27.91"><defs><style>.f2862c74-d028-469d-9928-df4a9d849114{fill:#231f20;}.ab1e82f8-bf59-417f-8bf1-24fd0f6541c8{opacity:0.25;}.a1d274b1-7286-4db0-91b7-68d31173b6e0{font-size:9px;fill:#020202;font-family:ABCWhyteTrial-Book, ABC Whyte Trial;letter-spacing:0.18em;}.b7e18794-8ebe-4638-ac7a-d8fa9e3b3c14{letter-spacing:0.18em;}.a8905a3a-0d2a-4450-bb61-25e7e5e821af{letter-spacing:0.18em;}.ff792706-cc76-41ce-9f8e-4d45f113865b{letter-spacing:0.17em;}.b7002258-c9de-473f-95bd-8856aa856ef1{letter-spacing:0.18em;}.ee1652a6-5f5d-41e5-a6c7-e691e0c49664{fill:#010101;fill-rule:evenodd;}</style></defs><path class="f2862c74-d028-469d-9928-df4a9d849114" d="M1872.68,44.23l-2.5-8.91h1.69l2.21,8.51h-.5l2-8.51h2.09l2,8.51h-.48l2.19-8.51h1.65l-2.51,8.91h-2.16l-2-8.51h.53l-2.13,8.51Z" transform="translate(-1830.87 -30.28)"/><path class="f2862c74-d028-469d-9928-df4a9d849114" d="M1887.38,44.41a3.44,3.44,0,0,1-1.53-.35,2.77,2.77,0,0,1-1.1-1,2.87,2.87,0,0,1-.41-1.53,2.73,2.73,0,0,1,.43-1.52,3,3,0,0,1,1.14-1.06,3.32,3.32,0,0,1,1.58-.38,3.24,3.24,0,0,1,.94.14,2.92,2.92,0,0,1,.75.37,1.25,1.25,0,0,1,.43.47l-.15.39V38.24A1.73,1.73,0,0,0,1889,37a1.53,1.53,0,0,0-1.2-.46,1.62,1.62,0,0,0-1,.3,1.34,1.34,0,0,0-.52.87h-1.63a2.31,2.31,0,0,1,.48-1.36,2.92,2.92,0,0,1,1.17-.9,3.62,3.62,0,0,1,1.53-.32,4.07,4.07,0,0,1,1.6.3,2.54,2.54,0,0,1,1.15,1A2.92,2.92,0,0,1,1891,38v6.21h-1.57V42.48l.62.23-1.4,1.42a3.49,3.49,0,0,1-.57.2A3,3,0,0,1,1887.38,44.41Zm.38-1.41a2,2,0,0,0,.91-.22,1.7,1.7,0,0,0,.65-.56,1.38,1.38,0,0,0,.24-.78,1.34,1.34,0,0,0-.52-1.08,1.9,1.9,0,0,0-1.28-.44,2.07,2.07,0,0,0-.92.19,1.55,1.55,0,0,0-.62.54,1.33,1.33,0,0,0-.23.79,1.42,1.42,0,0,0,.5,1.11A1.84,1.84,0,0,0,1887.76,43Z" transform="translate(-1830.87 -30.28)"/><path class="f2862c74-d028-469d-9928-df4a9d849114" d="M1894,44.23V31.85h1.58V44.23Z" transform="translate(-1830.87 -30.28)"/><path class="f2862c74-d028-469d-9928-df4a9d849114" d="M1898.52,44.23V31.85h1.57v7.27l3.7-3.8h2.09l-4.14,4,4.37,4.88H1904l-3.91-4.7v4.7Z" transform="translate(-1830.87 -30.28)"/><path class="f2862c74-d028-469d-9928-df4a9d849114" d="M1911.65,34.27V32.34h2v1.93Zm.24,10V35.32h1.58v8.91Z" transform="translate(-1830.87 -30.28)"/><path class="f2862c74-d028-469d-9928-df4a9d849114" d="M1916.46,44.23V35.32H1918v1.3l1.2-1.23a2.59,2.59,0,0,1,.55-.17,3.2,3.2,0,0,1,.79-.08,3.54,3.54,0,0,1,1.79.44,2.89,2.89,0,0,1,1.16,1.26,4.23,4.23,0,0,1,.4,1.91v5.48h-1.56V39.17a3.33,3.33,0,0,0-.26-1.4,2.1,2.1,0,0,0-3.46-.5,2.78,2.78,0,0,0-.61,1.9v5.06Z" transform="translate(-1830.87 -30.28)"/><path class="f2862c74-d028-469d-9928-df4a9d849114" d="M1930.09,36.78V35.32h5.57v1.46Zm2,7.45V32.66h1.57V44.23Z" transform="translate(-1830.87 -30.28)"/><path class="f2862c74-d028-469d-9928-df4a9d849114" d="M1937.62,44.23V31.85h1.58v4.77l1.2-1.23a2.31,2.31,0,0,1,.51-.17,3.08,3.08,0,0,1,.8-.08,3.65,3.65,0,0,1,1.83.44,3,3,0,0,1,1.16,1.26,4.37,4.37,0,0,1,.39,1.91v5.48h-1.55V39.17a3.5,3.5,0,0,0-.26-1.4,2,2,0,0,0-.74-.89,2,2,0,0,0-1.13-.31,2,2,0,0,0-1.6.7,2.78,2.78,0,0,0-.61,1.9v5.06Z" transform="translate(-1830.87 -30.28)"/><path class="f2862c74-d028-469d-9928-df4a9d849114" d="M1951.75,44.41a4.74,4.74,0,0,1-2.23-.53,3.9,3.9,0,0,1-1.59-1.5,4.27,4.27,0,0,1-.57-2.22,4.37,4.37,0,0,1,.38-1.77,5.61,5.61,0,0,1,1.18-1.66l1.22-1.26a3.41,3.41,0,0,1,1.61-.33,4.08,4.08,0,0,1,1.8.41,3.71,3.71,0,0,1,1.47,1.24,4.14,4.14,0,0,1,.71,2.1l-1.31,1.4h-5.52a3,3,0,0,0,.49,1.39,2.76,2.76,0,0,0,1,.91,3.06,3.06,0,0,0,1.39.32,3.13,3.13,0,0,0,1.4-.3,3.68,3.68,0,0,0,1-.73l.83,1.17a4.5,4.5,0,0,1-1.48,1A4.82,4.82,0,0,1,1951.75,44.41Zm2.46-5.54a3.52,3.52,0,0,0-.45-1.17,2.42,2.42,0,0,0-.86-.82,2.64,2.64,0,0,0-1.33-.31,2.59,2.59,0,0,0-1.17.28,2.66,2.66,0,0,0-.9.81,3.06,3.06,0,0,0-.51,1.21Z" transform="translate(-1830.87 -30.28)"/><path class="f2862c74-d028-469d-9928-df4a9d849114" d="M1962.33,44.23V31.85h1.58V44.23Z" transform="translate(-1830.87 -30.28)"/><path class="f2862c74-d028-469d-9928-df4a9d849114" d="M1966.65,34.27V32.34h2v1.93Zm.25,10V35.32h1.57v8.91Z" transform="translate(-1830.87 -30.28)"/><path class="f2862c74-d028-469d-9928-df4a9d849114" d="M1974.93,47.6a4.38,4.38,0,0,1-1.82-.36,3,3,0,0,1-1.28-1,2.74,2.74,0,0,1-.51-1.56H1973a1.49,1.49,0,0,0,.29.76,1.78,1.78,0,0,0,.73.57,2.67,2.67,0,0,0,1.1.21,2.29,2.29,0,0,0,1.26-.35,2.25,2.25,0,0,0,.81-.94,3.17,3.17,0,0,0,.28-1.37v-2l.62.18-1.59,1.66a3,3,0,0,1-.64.21,4,4,0,0,1-.88.09,4.15,4.15,0,0,1-2.14-.54,3.85,3.85,0,0,1-1.43-1.43,4,4,0,0,1-.5-2,3.88,3.88,0,0,1,.36-1.61,6,6,0,0,1,1.09-1.57l1-1.12a4.22,4.22,0,0,1,.62-.19,3.21,3.21,0,0,1,.78-.09,4.19,4.19,0,0,1,1.22.18,3.26,3.26,0,0,1,1.08.51,2.52,2.52,0,0,1,.75.78l-.38.55V35.32H1979v7.45a5.32,5.32,0,0,1-.24,1.7,3.86,3.86,0,0,1-.91,1.43l-1.31,1.38a4.35,4.35,0,0,1-.69.22A4.4,4.4,0,0,1,1974.93,47.6Zm.25-5.38a2.21,2.21,0,0,0,1.25-.36,2.18,2.18,0,0,0,.84-1,2.91,2.91,0,0,0,.28-1.36,3.17,3.17,0,0,0-.43-1.62,2.74,2.74,0,0,0-1-1,2.66,2.66,0,0,0-1.3-.34,2.27,2.27,0,0,0-2.1,1.3,3.23,3.23,0,0,0-.29,1.37,3,3,0,0,0,.41,1.61,2.7,2.7,0,0,0,1,1A2.82,2.82,0,0,0,1975.18,42.22Z" transform="translate(-1830.87 -30.28)"/><path class="f2862c74-d028-469d-9928-df4a9d849114" d="M1982,44.23V31.85h1.58v4.77l1.2-1.23a2.2,2.2,0,0,1,.5-.17,3.17,3.17,0,0,1,.81-.08,3.61,3.61,0,0,1,1.82.44,2.89,2.89,0,0,1,1.16,1.26,4.23,4.23,0,0,1,.4,1.91v5.48h-1.56V39.17a3.33,3.33,0,0,0-.26-1.4,2.1,2.1,0,0,0-3.46-.5,2.78,2.78,0,0,0-.61,1.9v5.06Z" transform="translate(-1830.87 -30.28)"/><path class="f2862c74-d028-469d-9928-df4a9d849114" d="M1991.17,36.78V35.32h5.58v1.46Zm2,7.45V32.66h1.58V44.23Z" transform="translate(-1830.87 -30.28)"/><g class="ab1e82f8-bf59-417f-8bf1-24fd0f6541c8"><text class="a1d274b1-7286-4db0-91b7-68d31173b6e0" transform="translate(38.83 24.8)">i<tspan class="b7e18794-8ebe-4638-ac7a-d8fa9e3b3c14" x="3.9" y="0">n</tspan><tspan class="a8905a3a-0d2a-4450-bb61-25e7e5e821af" x="10.74" y="0">t</tspan><tspan x="15.87" y="0">ern</tspan><tspan class="ff792706-cc76-41ce-9f8e-4d45f113865b" x="34.37" y="0">a</tspan><tspan class="b7002258-c9de-473f-95bd-8856aa856ef1" x="40.79" y="0">tional</tspan></text></g><path class="ee1652a6-5f5d-41e5-a6c7-e691e0c49664" d="M1845,30.28a14,14,0,1,1-14.11,13.95A14,14,0,0,1,1845,30.28Zm8.48,8.5c0-.2,0-.4-.08-.59l-1.14.59c.19.38.37.77.55,1.16l-.15.79,1.13.14-.3-1.3-.46-.63Zm-1.29,16.39a13.06,13.06,0,0,0,4.62-6.49c.63-2.16,1.13-4,1.11-4.11s-.24-.18-.43,0a4.85,4.85,0,0,0-.75,1,2.17,2.17,0,0,1-.17.71c-.09.12-.41.14-.5-.22a12.15,12.15,0,0,0-.61-1.72,3.1,3.1,0,0,0-1.15-.9,9.69,9.69,0,0,1-1.55-.51c-.11-.11-.47-.37-.53-.34a.59.59,0,0,0,0,.52c.09.22.42.73.55.66a.92.92,0,0,1,.76,0,.84.84,0,0,1-.3,1.12c-.49.33-2.09.75-2.35.18a19.11,19.11,0,0,0-1.14-2.08,2.76,2.76,0,0,0,.31,1.3c.3.69,1.24,2.35,1.52,2.21s.9-.25.81.06a5.83,5.83,0,0,1-.87,1.6,3.93,3.93,0,0,0-1,1.56,3.17,3.17,0,0,1-.28,1.39,9,9,0,0,0-1.19,1.14,5.94,5.94,0,0,1-1.64,1.36,1.86,1.86,0,0,1-1.32-.55,6.35,6.35,0,0,1-.73-2,4.73,4.73,0,0,0-.07-1.73c-.17-.46-1.07-1.73-1.63-1.7a6.36,6.36,0,0,1-2.6-.44,4.24,4.24,0,0,1-1-2,7.84,7.84,0,0,1,.73-2.48,4.36,4.36,0,0,1,4.41-1.62,2.06,2.06,0,0,0,.57.84c.25.16,1,.47,1.06.34a1.28,1.28,0,0,1,1-.29,8.13,8.13,0,0,0,1.49.25,1.25,1.25,0,0,0,.4-.45c0-.13-.07-.52-.32-.57a2.8,2.8,0,0,1-1.06-.41,3.68,3.68,0,0,0-.42-.55.28.28,0,0,0-.3.2c0,.17-.27.51-.38.37a2.06,2.06,0,0,1-.41-.7,1,1,0,0,0-.25-.6,7.45,7.45,0,0,0-.7-.48c-.09,0-.32-.06-.31,0a1.16,1.16,0,0,0,.37.61c.18.12.6.52.5.62s-.45.25-.59.08l-.66-.8a.91.91,0,0,0-.76-.19,4.73,4.73,0,0,0-1.1.81c-.16.23-.77.84-1,.8s-.85-.35-.85-.63.24-1,.53-1,1-.06.92-.2-.36-.59-.42-.7a.43.43,0,0,1,.23-.5,4.35,4.35,0,0,0,1-.49,2.47,2.47,0,0,1,.63-.51c.09,0,.33-.08.31-.15s0-.3.05-.37.27-.14.31,0a1,1,0,0,0,.66.4c.28,0,1-.09,1.11-.24s.32-.5.42-.47.34,0,.29-.07,0-.36.12-.38.49-.14.44-.18a.89.89,0,0,0-.43-.09c-.13,0-.53,0-.58-.06s-.21-.26-.22-.26h0s0,0,0-.07,0-.12,0-.14a1,1,0,0,0,.25-.17c0-.06.09-.21,0-.22a.76.76,0,0,0-.31.07,2.73,2.73,0,0,0-.37.32c-.06.08-.16.36-.08.41s.24.31.17.46a2,2,0,0,1-.48.61c-.12,0-.5,0-.57-.16s-.36-.51-.5-.46a2.36,2.36,0,0,1-.62.16.47.47,0,0,1-.22-.35c0-.14.16-.5.27-.55a3.24,3.24,0,0,0,.6-.39,1.93,1.93,0,0,1,.72-.42,11.46,11.46,0,0,1,1.71-.08c.52,0,2.61.12,3.44.09s1.47-.62.54-1.27l-1-.43-.12-.05-.32-.14-.36-.14-.12,0a13,13,0,0,0-4.42-.77,10,10,0,0,0-4.57.84c-2,1.12-3.5,2-3.43,2l.08,0s.05,0,.06,0,.07,0,.12.11a.45.45,0,0,1,.11.14s0,.11.08.2l0,0,.08.2.07.19v0a.54.54,0,0,1,0,.12s0,.1-.08.19a.57.57,0,0,1-.1.19,5.06,5.06,0,0,0-.39.45,2.16,2.16,0,0,0-.17.3.44.44,0,0,1-.1.11.68.68,0,0,1-.11.12,1.34,1.34,0,0,0-.31.32,4.53,4.53,0,0,0-.23.62c-.06.22-.19.38-.31.37a1.14,1.14,0,0,1-.5-.78c-.06-.4-.41-1-.7-.66s-1,1.44-.94,1.42h0l0,0s.06.21.14.49c0,.12.06.25.09.4v0c.08.34.16.71.22.94a1.22,1.22,0,0,1-.12.72c0,.32-.07.57-.18.64-.29.2-1.11.84-1.26,1a3.82,3.82,0,0,0-.61,1.61v1.66a6.68,6.68,0,0,0,.63,2.17l.2.1s0,0,0,0a1.68,1.68,0,0,1,.35.27,3,3,0,0,1,.36.29l.21.23.27.26a3.43,3.43,0,0,1,.33.42,2.14,2.14,0,0,1,.29.41,3.1,3.1,0,0,0,.53.72,10.53,10.53,0,0,0,1.19.79,1,1,0,0,1,.56,1.09c-.12.38-.48,1.24-.64,1.25a11.52,11.52,0,0,0,2.83,2.32,11,11,0,0,0,5.8,1.51,13.06,13.06,0,0,0,6.16-1.55l.1-.06.4-.23.31-.2Zm-.74-15.82c-.75-.4-1.52-.8-2.28-1.17-.21.35-.42.73-.64,1.11l.33.56,1.31-.18.95.29Z" transform="translate(-1830.87 -30.28)"/></svg>