<svg xmlns="http://www.w3.org/2000/svg" xmlns:xlink="http://www.w3.org/1999/xlink" width="130.998" height="22.375" viewBox="0 0 130.998 22.375">
  <defs>
    <clipPath id="clip-path">
      <circle id="Ellipse_19" data-name="Ellipse 19" cx="9.971" cy="9.971" r="9.971" transform="translate(3417.023 26.49)" fill="none"/>
    </clipPath>
  </defs>
  <g id="Group_123" data-name="Group 123" transform="translate(-3415.807 -25.274)">
    <g id="Group_117" data-name="Group 117">
      <path id="Path_135" data-name="Path 135" d="M3449.03,36.253l-1.967-7.029h1.324l1.744,6.708h-.391l1.6-6.708h1.647l1.617,6.708h-.377l1.73-6.708h1.3l-1.981,7.029h-1.7l-1.617-6.708h.417l-1.673,6.708Z" fill="#e8e1dd"/>
      <path id="Path_136" data-name="Path 136" d="M3460.618,36.392a2.627,2.627,0,0,1-1.2-.279,2.117,2.117,0,0,1-.873-.8,2.262,2.262,0,0,1-.32-1.206,2.207,2.207,0,0,1,.334-1.2,2.344,2.344,0,0,1,.9-.83,2.618,2.618,0,0,1,1.248-.3,2.427,2.427,0,0,1,.74.111,2.155,2.155,0,0,1,.592.286,1.05,1.05,0,0,1,.341.37l-.125.307V31.525a1.382,1.382,0,0,0-.327-.969,1.22,1.22,0,0,0-.942-.356,1.325,1.325,0,0,0-.8.23,1.1,1.1,0,0,0-.411.691h-1.283a1.853,1.853,0,0,1,.383-1.074,2.361,2.361,0,0,1,.921-.712,2.945,2.945,0,0,1,1.206-.251,3.234,3.234,0,0,1,1.262.238,1.955,1.955,0,0,1,.9.746,2.3,2.3,0,0,1,.335,1.29v4.895h-1.242V34.872l.489.181-1.1,1.116a2.548,2.548,0,0,1-.446.16A2.248,2.248,0,0,1,3460.618,36.392Zm.293-1.116a1.556,1.556,0,0,0,.719-.167,1.337,1.337,0,0,0,.515-.446,1.088,1.088,0,0,0-.222-1.464,1.512,1.512,0,0,0-1.012-.349,1.619,1.619,0,0,0-.718.153,1.241,1.241,0,0,0-.5.426,1.089,1.089,0,0,0-.181.62,1.117,1.117,0,0,0,.4.879A1.458,1.458,0,0,0,3460.911,35.276Z" fill="#e8e1dd"/>
      <path id="Path_137" data-name="Path 137" d="M3465.792,36.253V26.49h1.242v9.763Z" fill="#e8e1dd"/>
      <path id="Path_138" data-name="Path 138" d="M3469.391,36.253V26.49h1.241v5.732l2.915-3h1.645l-3.263,3.179,3.444,3.85h-1.659l-3.082-3.71v3.71Z" fill="#e8e1dd"/>
      <path id="Path_139" data-name="Path 139" d="M3479.739,28.4v-1.52h1.617V28.4Zm.194,7.852V29.224h1.242v7.029Z" fill="#e8e1dd"/>
      <path id="Path_140" data-name="Path 140" d="M3483.532,36.253V29.224h1.241v1.032l.949-.976a2.277,2.277,0,0,1,.432-.133,2.852,2.852,0,0,1,.628-.063,2.756,2.756,0,0,1,1.408.349,2.273,2.273,0,0,1,.913.99,3.384,3.384,0,0,1,.315,1.507v4.323h-1.228V32.264a2.728,2.728,0,0,0-.2-1.1,1.563,1.563,0,0,0-.579-.7,1.734,1.734,0,0,0-2.155.307,2.2,2.2,0,0,0-.481,1.5v3.989Z" fill="#e8e1dd"/>
      <path id="Path_141" data-name="Path 141" d="M3494.271,30.382V29.224h4.393v1.158Zm1.575,5.871V27.132h1.242v9.121Z" fill="#e8e1dd"/>
      <path id="Path_142" data-name="Path 142" d="M3500.212,36.253V26.49h1.24v3.766l.949-.976a1.922,1.922,0,0,1,.4-.133,2.714,2.714,0,0,1,.634-.063,2.815,2.815,0,0,1,1.436.349,2.275,2.275,0,0,1,.914.99,3.384,3.384,0,0,1,.314,1.507v4.323h-1.228V32.264a2.745,2.745,0,0,0-.2-1.1,1.563,1.563,0,0,0-.58-.7,1.733,1.733,0,0,0-2.154.307,2.2,2.2,0,0,0-.482,1.5v3.989Z" fill="#e8e1dd"/>
      <path id="Path_143" data-name="Path 143" d="M3511.34,36.392a3.714,3.714,0,0,1-1.757-.418,3.117,3.117,0,0,1-1.249-1.179,3.518,3.518,0,0,1-.153-3.144,4.565,4.565,0,0,1,.928-1.312l.963-.99a2.656,2.656,0,0,1,1.268-.265,3.307,3.307,0,0,1,1.423.321,2.978,2.978,0,0,1,1.158.983,3.277,3.277,0,0,1,.558,1.653l-1.032,1.1h-4.352a2.352,2.352,0,0,0,.391,1.094,2.16,2.16,0,0,0,.816.719,2.388,2.388,0,0,0,1.095.251,2.5,2.5,0,0,0,1.1-.23,3.049,3.049,0,0,0,.823-.579l.655.92a3.475,3.475,0,0,1-1.172.788A3.738,3.738,0,0,1,3511.34,36.392Zm1.94-4.365a2.687,2.687,0,0,0-.35-.92,1.874,1.874,0,0,0-.682-.649,2.1,2.1,0,0,0-1.048-.244,1.934,1.934,0,0,0-.92.223,2.064,2.064,0,0,0-.711.635,2.492,2.492,0,0,0-.4.955Z" fill="#e8e1dd"/>
      <path id="Path_144" data-name="Path 144" d="M3519.68,36.253V26.49h1.242v9.763Z" fill="#e8e1dd"/>
      <path id="Path_145" data-name="Path 145" d="M3523.083,28.4v-1.52h1.618V28.4Zm.2,7.852V29.224h1.242v7.029Z" fill="#e8e1dd"/>
      <path id="Path_146" data-name="Path 146" d="M3529.609,38.9a3.476,3.476,0,0,1-1.435-.28,2.412,2.412,0,0,1-1-.8,2.208,2.208,0,0,1-.405-1.235h1.283a1.183,1.183,0,0,0,.23.6,1.408,1.408,0,0,0,.572.447,2.107,2.107,0,0,0,.871.167,1.781,1.781,0,0,0,.991-.272,1.756,1.756,0,0,0,.641-.746,2.507,2.507,0,0,0,.224-1.074V34.1l.487.139-1.254,1.311a2.312,2.312,0,0,1-.509.168,3.542,3.542,0,0,1-2.378-.356,3,3,0,0,1-1.123-1.13,3.078,3.078,0,0,1-.4-1.541,3.033,3.033,0,0,1,.285-1.269,4.739,4.739,0,0,1,.857-1.241l.824-.879a3.2,3.2,0,0,1,.481-.153,2.632,2.632,0,0,1,.62-.07,3.407,3.407,0,0,1,.963.14,2.918,2.918,0,0,1,.851.4,2.065,2.065,0,0,1,.586.614l-.293.432v-1.45h1.24V35.1a4.286,4.286,0,0,1-.188,1.346,3.071,3.071,0,0,1-.718,1.123l-1.032,1.087a2.718,2.718,0,0,1-.544.175A3.252,3.252,0,0,1,3529.609,38.9Zm.2-4.24a1.785,1.785,0,0,0,.989-.279,1.807,1.807,0,0,0,.662-.76,2.283,2.283,0,0,0,.216-1.067,2.484,2.484,0,0,0-.34-1.283,2.181,2.181,0,0,0-.824-.8,2.139,2.139,0,0,0-1.024-.265,1.826,1.826,0,0,0-.991.272,1.76,1.76,0,0,0-.662.753,2.479,2.479,0,0,0-.23,1.081,2.4,2.4,0,0,0,.321,1.269,2.145,2.145,0,0,0,.829.8A2.213,2.213,0,0,0,3529.806,34.663Z" fill="#e8e1dd"/>
      <path id="Path_147" data-name="Path 147" d="M3535.174,36.253V26.49h1.242v3.766l.948-.976a1.933,1.933,0,0,1,.4-.133,2.726,2.726,0,0,1,.635-.063,2.816,2.816,0,0,1,1.437.349,2.288,2.288,0,0,1,.914.99,3.411,3.411,0,0,1,.313,1.507v4.323h-1.227V32.264a2.727,2.727,0,0,0-.2-1.1,1.559,1.559,0,0,0-.578-.7,1.736,1.736,0,0,0-2.156.307,2.2,2.2,0,0,0-.48,1.5v3.989Z" fill="#e8e1dd"/>
      <path id="Path_148" data-name="Path 148" d="M3542.412,30.382V29.224h4.393v1.158Zm1.576,5.871V27.132h1.241v9.121Z" fill="#e8e1dd"/>
    </g>
    <g id="Group_118" data-name="Group 118">
      <path id="Path_149" data-name="Path 149" d="M3447.261,40.606v-.773h.637v.773Zm.022,4.19v-3.51h.6V44.8Z" fill="#e8e1dd"/>
      <path id="Path_150" data-name="Path 150" d="M3450.36,44.8v-3.51h.582V41.9a1.224,1.224,0,0,1,1.162-.716c.873,0,1.227.553,1.227,1.333V44.8h-.6V42.662c0-.667-.3-.95-.795-.95-.935,0-.977,1.021-.977,1.531V44.8Z" fill="#e8e1dd"/>
      <path id="Path_151" data-name="Path 151" d="M3456.992,44.8c-.6,0-.9-.291-.9-.872V41.79h-.822v-.5h.822V40.2h.6v1.084h.972v.5h-.972v2.084a.352.352,0,0,0,.405.4h.695V44.8Z" fill="#e8e1dd"/>
      <path id="Path_152" data-name="Path 152" d="M3459.523,43.038a1.648,1.648,0,0,1,1.575-1.851,1.612,1.612,0,0,1,1.531,1.993h-2.5c.027.907.518,1.2,1.02,1.2a1.014,1.014,0,0,0,.951-.695l.553.2a1.54,1.54,0,0,1-1.525,1.006C3460.162,44.9,3459.523,44.243,3459.523,43.038Zm2.5-.341a.93.93,0,0,0-.922-1.028,1.007,1.007,0,0,0-.957,1.028Z" fill="#e8e1dd"/>
      <path id="Path_153" data-name="Path 153" d="M3464.872,44.8v-3.51h.581v.759a1.271,1.271,0,0,1,1.17-.808,1.125,1.125,0,0,1,.354.042v.61a2.866,2.866,0,0,0-.4-.035c-.787,0-1.112.517-1.112,1.361V44.8Z" fill="#e8e1dd"/>
      <path id="Path_154" data-name="Path 154" d="M3468.979,44.8v-3.51h.58V41.9a1.225,1.225,0,0,1,1.163-.716c.872,0,1.227.553,1.227,1.333V44.8h-.6V42.662c0-.667-.306-.95-.795-.95-.936,0-.978,1.021-.978,1.531V44.8Z" fill="#e8e1dd"/>
      <path id="Path_155" data-name="Path 155" d="M3474.142,43.9c0-.964,1.07-1.305,2.233-1.4v-.121c0-.418-.234-.687-.779-.687a.885.885,0,0,0-.943.645l-.582-.192a1.441,1.441,0,0,1,1.525-.964c.95,0,1.375.489,1.375,1.219v1.638c0,.185.064.234.233.234h.349V44.8h-.475c-.489,0-.61-.22-.647-.567a1.262,1.262,0,0,1-1.169.666A.987.987,0,0,1,3474.142,43.9Zm2.233-.582v-.376c-.871.086-1.617.319-1.617.908,0,.333.228.546.66.546A.962.962,0,0,0,3476.375,43.321Z" fill="#e8e1dd"/>
      <path id="Path_156" data-name="Path 156" d="M3480.674,44.8c-.6,0-.9-.291-.9-.872V41.79h-.823v-.5h.823V40.2h.595v1.084h.972v.5h-.972v2.084a.352.352,0,0,0,.405.4h.7V44.8Z" fill="#e8e1dd"/>
      <path id="Path_157" data-name="Path 157" d="M3483.482,40.606v-.773h.639v.773Zm.021,4.19v-3.51h.6V44.8Z" fill="#e8e1dd"/>
      <path id="Path_158" data-name="Path 158" d="M3486.3,43.045a1.669,1.669,0,1,1,1.667,1.85A1.716,1.716,0,0,1,3486.3,43.045Zm2.695.007c0-.893-.44-1.34-1.028-1.34s-1.036.447-1.036,1.34.44,1.319,1.036,1.319S3488.993,43.945,3488.993,43.052Z" fill="#e8e1dd"/>
      <path id="Path_159" data-name="Path 159" d="M3491.824,44.8v-3.51h.58V41.9a1.225,1.225,0,0,1,1.163-.716c.872,0,1.227.553,1.227,1.333V44.8h-.6V42.662c0-.667-.306-.95-.795-.95-.936,0-.978,1.021-.978,1.531V44.8Z" fill="#e8e1dd"/>
      <path id="Path_160" data-name="Path 160" d="M3496.987,43.9c0-.964,1.07-1.305,2.233-1.4v-.121c0-.418-.234-.687-.78-.687a.884.884,0,0,0-.942.645l-.582-.192a1.44,1.44,0,0,1,1.524-.964c.951,0,1.376.489,1.376,1.219v1.638c0,.185.064.234.233.234h.349V44.8h-.475c-.489,0-.61-.22-.647-.567a1.262,1.262,0,0,1-1.169.666A.987.987,0,0,1,3496.987,43.9Zm2.233-.582v-.376c-.871.086-1.617.319-1.617.908,0,.333.228.546.66.546A.962.962,0,0,0,3499.22,43.321Z" fill="#e8e1dd"/>
      <path id="Path_161" data-name="Path 161" d="M3502.335,44.8V39.833h.6V44.8Z" fill="#e8e1dd"/>
    </g>
    <g id="Group_122" data-name="Group 122">
      <g id="Group_121" data-name="Group 121" clip-path="url(#clip-path)">
        <g id="Group_120" data-name="Group 120">
          <g id="Group_119" data-name="Group 119">
            <path id="Path_162" data-name="Path 162" d="M3427.2,25.255a11,11,0,1,1-11.121,11A11.06,11.06,0,0,1,3427.2,25.255Zm6.678,6.7c-.018-.155-.037-.309-.057-.46l-.9.462c.149.3.291.6.436.917-.038.2-.078.414-.117.622l.885.108c-.073-.347-.156-.689-.235-1.022-.123-.166-.238-.334-.358-.495Zm-1.018,12.92a10.254,10.254,0,0,0,3.646-5.114c.5-1.7.89-3.16.873-3.237s-.191-.149-.339.018a4.2,4.2,0,0,0-.591.828,1.679,1.679,0,0,1-.136.563c-.069.094-.317.11-.391-.177a9.541,9.541,0,0,0-.485-1.355,2.465,2.465,0,0,0-.9-.712,7.118,7.118,0,0,1-1.221-.4c-.09-.087-.372-.293-.417-.265a.448.448,0,0,0-.036.41c.07.17.331.573.432.518a.745.745,0,0,1,.6.006.667.667,0,0,1-.236.882c-.385.262-1.644.6-1.857.145a14.8,14.8,0,0,0-.9-1.642,2.132,2.132,0,0,0,.251,1.026c.237.549.973,1.855,1.191,1.745s.716-.2.643.047a4.535,4.535,0,0,1-.689,1.256,3.156,3.156,0,0,0-.81,1.23,2.472,2.472,0,0,1-.219,1.1,6.906,6.906,0,0,0-.935.9,4.7,4.7,0,0,1-1.293,1.066,1.485,1.485,0,0,1-1.047-.427,5.416,5.416,0,0,1-.575-1.55,3.643,3.643,0,0,0-.054-1.362c-.128-.364-.839-1.363-1.284-1.339a5,5,0,0,1-2.044-.349,3.331,3.331,0,0,1-.825-1.576,6.211,6.211,0,0,1,.581-1.951,4.961,4.961,0,0,1,1.723-1.208,5.317,5.317,0,0,1,1.745-.073,1.661,1.661,0,0,0,.457.665c.192.124.762.368.833.267a1.01,1.01,0,0,1,.794-.231,5.8,5.8,0,0,0,1.175.2.984.984,0,0,0,.312-.35c.028-.106-.056-.414-.251-.449a2.337,2.337,0,0,1-.835-.325,2.725,2.725,0,0,0-.327-.434.224.224,0,0,0-.241.159c-.038.133-.21.4-.3.293a1.925,1.925,0,0,1-.322-.554.8.8,0,0,0-.2-.478c-.12-.088-.482-.341-.552-.373s-.25-.046-.242.039a.923.923,0,0,0,.29.479c.146.093.472.408.4.491s-.361.2-.47.06-.446-.552-.522-.632a.712.712,0,0,0-.592-.145,3.559,3.559,0,0,0-.869.634c-.127.183-.611.66-.8.634s-.671-.274-.672-.5.189-.78.42-.77.792-.05.722-.16-.283-.463-.324-.55a.337.337,0,0,1,.176-.4,3.272,3.272,0,0,0,.818-.385,2,2,0,0,1,.5-.4c.076-.006.263-.061.249-.118a.453.453,0,0,1,.036-.291c.05-.05.21-.113.246-.032a.814.814,0,0,0,.523.315c.214,0,.817-.073.869-.19s.252-.393.332-.371.266.017.233-.056-.026-.28.09-.3.386-.106.345-.136a.679.679,0,0,0-.336-.077c-.1.017-.416.016-.46-.043s-.161-.207-.167-.207-.018-.005-.016-.009a.115.115,0,0,0-.025-.055c-.018-.022-.029-.091.009-.107a.6.6,0,0,0,.191-.139c.027-.046.07-.164.032-.166a.606.606,0,0,0-.242.051,1.913,1.913,0,0,0-.291.25c-.049.064-.125.285-.063.325s.189.247.134.36-.282.456-.377.483-.4,0-.449-.128-.282-.4-.392-.358a1.854,1.854,0,0,1-.5.125.367.367,0,0,1-.166-.275c.012-.109.119-.4.212-.438a2.1,2.1,0,0,0,.469-.3,1.511,1.511,0,0,1,.569-.334,9.017,9.017,0,0,1,1.349-.058c.411.024,2.054.089,2.707.067s1.16-.486.423-1l-.746-.342c-.032-.013-.064-.028-.095-.042-.082-.036-.165-.072-.248-.106s-.188-.075-.283-.111l-.1-.037a10.2,10.2,0,0,0-3.482-.609,7.836,7.836,0,0,0-3.6.664c-1.546.877-2.763,1.6-2.7,1.612a.3.3,0,0,1,.062.021.149.149,0,0,1,.046-.008c.022,0,.056.041.093.093a.293.293,0,0,1,.089.1c.013.033.037.093.064.159l.016.033c.018.04.04.1.062.161s.051.128.057.15l0,.017c.015.044.027.08.033.1a.3.3,0,0,1-.067.147.389.389,0,0,1-.082.154c-.066.066-.207.229-.3.35a1.621,1.621,0,0,0-.133.238.326.326,0,0,1-.082.092.353.353,0,0,1-.087.087,1.194,1.194,0,0,0-.243.256,3.538,3.538,0,0,0-.185.491c-.042.169-.149.3-.237.286a.887.887,0,0,1-.4-.613c-.047-.312-.323-.817-.557-.518s-.749,1.133-.733,1.12.005,0,.01.009a.241.241,0,0,1,.019-.033,2.9,2.9,0,0,1,.1.388c.026.092.052.2.076.31l0,.019c.064.27.131.555.175.736a.966.966,0,0,1-.093.568c-.015.251-.056.452-.14.507-.235.159-.873.663-1,.783a3.119,3.119,0,0,0-.483,1.268v1.3a5.432,5.432,0,0,0,.5,1.714,1.273,1.273,0,0,1,.159.08c.009-.015.02-.022.033-.018a1.41,1.41,0,0,1,.278.214,1.861,1.861,0,0,1,.279.232c.041.042.1.1.165.178l.212.2a2.173,2.173,0,0,1,.261.332,1.8,1.8,0,0,1,.233.323,2.344,2.344,0,0,0,.418.568,7.812,7.812,0,0,0,.932.622.8.8,0,0,1,.441.86c-.091.3-.374.976-.5.98a8.833,8.833,0,0,0,2.224,1.831,8.668,8.668,0,0,0,4.574,1.188,10.185,10.185,0,0,0,4.852-1.222l.081-.046c.106-.058.212-.118.316-.18.082-.05.164-.1.246-.154Zm-.576-12.471c-.594-.315-1.2-.626-1.8-.923-.165.281-.33.58-.5.881.088.146.177.29.264.439.349-.047.689-.1,1.026-.139.249.072.505.145.752.224C3432.112,32.717,3432.2,32.556,3432.287,32.4Z" fill="#e8e1dd" fill-rule="evenodd"/>
          </g>
        </g>
      </g>
    </g>
    <path id="Path_163" data-name="Path 163" d="M3427,47.649a11.187,11.187,0,1,1,11.187-11.188A11.2,11.2,0,0,1,3427,47.649Zm0-21.811a10.623,10.623,0,1,0,10.623,10.623A10.635,10.635,0,0,0,3427,25.838Z" fill="#e8e1dd"/>
  </g>
</svg>
