<svg xmlns="http://www.w3.org/2000/svg" width="11.375" height="8.531" viewBox="0 0 11.375 8.531"><path d="M7578.627,454.051c0,1.4-2.635,4.265-5.688,4.265s-5.687-2.862-5.687-4.265,2.635-4.266,5.687-4.266S7578.627,452.648,7578.627,454.051Zm-1.016,0c0-.66-2.044-3.25-4.672-3.25s-4.672,2.59-4.672,3.25,2.044,3.25,4.672,3.25S7577.611,454.711,7577.611,454.051Zm-2.494-1.092a2.436,2.436,0,1,1-2.178-1.346v1.016a1.422,1.422,0,1,0,1.422,1.422,1.4,1.4,0,0,0-.152-.635Z" transform="translate(-7567.252 -449.785)" fill="#030504"/></svg>